<?xml version="1.0" encoding="UTF-8"?>
<svg xmlns="http://www.w3.org/2000/svg" xmlns:xlink="http://www.w3.org/1999/xlink" width="360" height="252" viewBox="0 0 360 252">
<defs>
<g>
<g id="glyph-0-0">
</g>
<g id="glyph-0-1">
<path d="M 2.46875 -6.5 C 1.875 -6.5 1.34375 -6.234375 1.015625 -5.796875 C 0.59375 -5.21875 0.390625 -4.359375 0.390625 -3.15625 C 0.390625 -0.953125 1.109375 0.203125 2.46875 0.203125 C 3.828125 0.203125 4.5625 -0.953125 4.5625 -3.09375 C 4.5625 -4.359375 4.359375 -5.203125 3.9375 -5.796875 C 3.609375 -6.25 3.078125 -6.5 2.46875 -6.5 Z M 2.46875 -5.8125 C 3.328125 -5.8125 3.75 -4.9375 3.75 -3.171875 C 3.75 -1.3125 3.34375 -0.453125 2.453125 -0.453125 C 1.625 -0.453125 1.203125 -1.34375 1.203125 -3.140625 C 1.203125 -4.9375 1.625 -5.8125 2.46875 -5.8125 Z M 2.46875 -5.8125 "/>
</g>
<g id="glyph-0-2">
<path d="M 1.71875 -0.9375 L 0.78125 -0.9375 L 0.78125 0 L 1.71875 0 Z M 1.71875 -0.9375 "/>
</g>
<g id="glyph-0-3">
<path d="M 2.328125 -4.640625 L 2.328125 0 L 3.125 0 L 3.125 -6.5 L 2.59375 -6.5 C 2.328125 -5.515625 2.140625 -5.375 0.921875 -5.21875 L 0.921875 -4.640625 Z M 2.328125 -4.640625 "/>
</g>
<g id="glyph-0-4">
<path d="M 4.546875 -0.78125 L 1.203125 -0.78125 C 1.28125 -1.328125 1.5625 -1.671875 2.34375 -2.140625 L 3.25 -2.640625 C 4.140625 -3.140625 4.59375 -3.8125 4.59375 -4.609375 C 4.59375 -5.140625 4.390625 -5.65625 4 -6 C 3.625 -6.34375 3.15625 -6.5 2.5625 -6.5 C 1.75 -6.5 1.140625 -6.21875 0.796875 -5.65625 C 0.5625 -5.3125 0.46875 -4.90625 0.453125 -4.25 L 1.234375 -4.25 C 1.265625 -4.703125 1.328125 -4.953125 1.4375 -5.171875 C 1.640625 -5.578125 2.046875 -5.8125 2.53125 -5.8125 C 3.25 -5.8125 3.78125 -5.296875 3.78125 -4.59375 C 3.78125 -4.0625 3.484375 -3.625 2.921875 -3.296875 L 2.09375 -2.8125 C 0.765625 -2.046875 0.375 -1.4375 0.3125 -0.015625 L 4.546875 -0.015625 Z M 4.546875 -0.78125 "/>
</g>
<g id="glyph-0-5">
<path d="M 1.984375 -3 L 2.421875 -3 C 3.28125 -3 3.75 -2.59375 3.75 -1.8125 C 3.75 -0.984375 3.25 -0.5 2.4375 -0.5 C 1.5625 -0.5 1.140625 -0.9375 1.078125 -1.890625 L 0.28125 -1.890625 C 0.328125 -1.375 0.40625 -1.03125 0.5625 -0.734375 C 0.90625 -0.109375 1.515625 0.203125 2.390625 0.203125 C 3.703125 0.203125 4.546875 -0.578125 4.546875 -1.8125 C 4.546875 -2.640625 4.234375 -3.09375 3.46875 -3.359375 C 4.0625 -3.609375 4.359375 -4.0625 4.359375 -4.71875 C 4.359375 -5.828125 3.640625 -6.5 2.421875 -6.5 C 1.140625 -6.5 0.453125 -5.78125 0.421875 -4.40625 L 1.21875 -4.40625 C 1.21875 -4.8125 1.265625 -5.03125 1.359375 -5.234375 C 1.53125 -5.59375 1.9375 -5.8125 2.4375 -5.8125 C 3.125 -5.8125 3.5625 -5.390625 3.5625 -4.6875 C 3.5625 -4.234375 3.390625 -3.953125 3.046875 -3.796875 C 2.828125 -3.703125 2.53125 -3.671875 1.984375 -3.65625 Z M 1.984375 -3 "/>
</g>
<g id="glyph-0-6">
<path d="M 2.9375 -1.578125 L 2.9375 0 L 3.734375 0 L 3.734375 -1.578125 L 4.6875 -1.578125 L 4.6875 -2.28125 L 3.734375 -2.28125 L 3.734375 -6.5 L 3.15625 -6.5 L 0.25 -2.40625 L 0.25 -1.578125 Z M 2.9375 -2.28125 L 0.9375 -2.28125 L 2.9375 -5.15625 Z M 2.9375 -2.28125 "/>
</g>
<g id="glyph-0-7">
<path d="M 4.28125 -6.375 L 0.984375 -6.375 L 0.515625 -2.90625 L 1.234375 -2.90625 C 1.609375 -3.34375 1.921875 -3.5 2.421875 -3.5 C 3.28125 -3.5 3.8125 -2.921875 3.8125 -1.96875 C 3.8125 -1.046875 3.28125 -0.5 2.40625 -0.5 C 1.71875 -0.5 1.296875 -0.84375 1.109375 -1.5625 L 0.3125 -1.5625 C 0.421875 -1.046875 0.515625 -0.796875 0.703125 -0.5625 C 1.0625 -0.078125 1.703125 0.203125 2.4375 0.203125 C 3.71875 0.203125 4.609375 -0.734375 4.609375 -2.078125 C 4.609375 -3.34375 3.78125 -4.203125 2.5625 -4.203125 C 2.109375 -4.203125 1.75 -4.09375 1.375 -3.8125 L 1.625 -5.59375 L 4.28125 -5.59375 Z M 4.28125 -6.375 "/>
</g>
<g id="glyph-0-8">
<path d="M 4.484375 -4.8125 C 4.328125 -5.875 3.640625 -6.5 2.671875 -6.5 C 1.96875 -6.5 1.34375 -6.171875 0.96875 -5.578125 C 0.5625 -4.9375 0.390625 -4.15625 0.390625 -2.96875 C 0.390625 -1.875 0.546875 -1.171875 0.921875 -0.609375 C 1.265625 -0.078125 1.828125 0.203125 2.53125 0.203125 C 3.75 0.203125 4.609375 -0.703125 4.609375 -1.96875 C 4.609375 -3.171875 3.8125 -4.015625 2.65625 -4.015625 C 2.03125 -4.015625 1.53125 -3.78125 1.203125 -3.296875 C 1.203125 -4.90625 1.703125 -5.8125 2.625 -5.8125 C 3.171875 -5.8125 3.5625 -5.4375 3.6875 -4.8125 Z M 2.5625 -3.3125 C 3.328125 -3.3125 3.8125 -2.765625 3.8125 -1.90625 C 3.8125 -1.09375 3.265625 -0.5 2.53125 -0.5 C 1.796875 -0.5 1.234375 -1.109375 1.234375 -1.9375 C 1.234375 -2.75 1.78125 -3.3125 2.5625 -3.3125 Z M 2.5625 -3.3125 "/>
</g>
<g id="glyph-1-0">
</g>
<g id="glyph-1-1">
<path d="M 5.4375 -2.671875 L 0.40625 -2.671875 L 0.40625 -1.96875 L 5.4375 -1.96875 Z M 5.4375 -2.671875 "/>
</g>
<g id="glyph-1-2">
<path d="M 5.0625 -0.875 L 1.328125 -0.875 C 1.421875 -1.46875 1.734375 -1.84375 2.609375 -2.375 L 3.609375 -2.9375 C 4.59375 -3.484375 5.109375 -4.234375 5.109375 -5.125 C 5.109375 -5.71875 4.875 -6.28125 4.453125 -6.671875 C 4.03125 -7.046875 3.515625 -7.234375 2.84375 -7.234375 C 1.9375 -7.234375 1.265625 -6.90625 0.875 -6.296875 C 0.625 -5.90625 0.515625 -5.453125 0.5 -4.734375 L 1.375 -4.734375 C 1.40625 -5.21875 1.46875 -5.515625 1.59375 -5.75 C 1.8125 -6.1875 2.28125 -6.453125 2.8125 -6.453125 C 3.609375 -6.453125 4.203125 -5.875 4.203125 -5.09375 C 4.203125 -4.515625 3.875 -4.015625 3.25 -3.65625 L 2.328125 -3.125 C 0.84375 -2.265625 0.421875 -1.59375 0.34375 -0.015625 L 5.0625 -0.015625 Z M 5.0625 -0.875 "/>
</g>
<g id="glyph-1-3">
<path d="M 2.75 -7.234375 C 2.09375 -7.234375 1.484375 -6.9375 1.125 -6.4375 C 0.65625 -5.796875 0.4375 -4.84375 0.4375 -3.5 C 0.4375 -1.0625 1.234375 0.234375 2.75 0.234375 C 4.25 0.234375 5.0625 -1.0625 5.0625 -3.4375 C 5.0625 -4.84375 4.84375 -5.78125 4.375 -6.4375 C 4.015625 -6.9375 3.421875 -7.234375 2.75 -7.234375 Z M 2.75 -6.453125 C 3.703125 -6.453125 4.171875 -5.484375 4.171875 -3.515625 C 4.171875 -1.453125 3.703125 -0.5 2.734375 -0.5 C 1.796875 -0.5 1.328125 -1.5 1.328125 -3.484375 C 1.328125 -5.484375 1.796875 -6.453125 2.75 -6.453125 Z M 2.75 -6.453125 "/>
</g>
<g id="glyph-1-4">
<path d="M 2.59375 -5.15625 L 2.59375 0 L 3.46875 0 L 3.46875 -7.234375 L 2.890625 -7.234375 C 2.578125 -6.125 2.375 -5.96875 1.015625 -5.796875 L 1.015625 -5.15625 Z M 2.59375 -5.15625 "/>
</g>
<g id="glyph-1-5">
<path d="M 4.765625 -7.09375 L 1.09375 -7.09375 L 0.5625 -3.234375 L 1.375 -3.234375 C 1.796875 -3.71875 2.125 -3.890625 2.6875 -3.890625 C 3.640625 -3.890625 4.234375 -3.234375 4.234375 -2.1875 C 4.234375 -1.171875 3.640625 -0.546875 2.6875 -0.546875 C 1.90625 -0.546875 1.4375 -0.9375 1.234375 -1.734375 L 0.34375 -1.734375 C 0.46875 -1.15625 0.5625 -0.875 0.78125 -0.625 C 1.1875 -0.078125 1.90625 0.234375 2.703125 0.234375 C 4.125 0.234375 5.125 -0.8125 5.125 -2.3125 C 5.125 -3.703125 4.203125 -4.671875 2.84375 -4.671875 C 2.34375 -4.671875 1.9375 -4.546875 1.53125 -4.234375 L 1.8125 -6.21875 L 4.765625 -6.21875 Z M 4.765625 -7.09375 "/>
</g>
<g id="glyph-1-6">
</g>
<g id="glyph-1-7">
<path d="M 1.828125 -3.3125 L 5.796875 -3.3125 L 5.796875 -4.140625 L 1.828125 -4.140625 L 1.828125 -6.46875 L 5.953125 -6.46875 L 5.953125 -7.296875 L 0.90625 -7.296875 L 0.90625 0 L 6.125 0 L 6.125 -0.8125 L 1.828125 -0.8125 Z M 1.828125 -3.3125 "/>
</g>
<g id="glyph-1-8">
<path d="M 2.359375 -7.296875 C 1.359375 -5.984375 0.734375 -4.15625 0.734375 -2.59375 C 0.734375 -1.015625 1.359375 0.8125 2.359375 2.125 L 2.90625 2.125 C 2.03125 0.6875 1.546875 -0.984375 1.546875 -2.59375 C 1.546875 -4.1875 2.03125 -5.875 2.90625 -7.296875 Z M 2.359375 -7.296875 "/>
</g>
<g id="glyph-1-9">
<path d="M 5.125 -2.34375 C 5.125 -3.140625 5.0625 -3.625 4.921875 -4.015625 C 4.578125 -4.875 3.78125 -5.390625 2.796875 -5.390625 C 1.34375 -5.390625 0.40625 -4.28125 0.40625 -2.546875 C 0.40625 -0.8125 1.296875 0.234375 2.78125 0.234375 C 3.984375 0.234375 4.8125 -0.453125 5.015625 -1.59375 L 4.1875 -1.59375 C 3.953125 -0.90625 3.484375 -0.546875 2.8125 -0.546875 C 2.28125 -0.546875 1.828125 -0.78125 1.546875 -1.21875 C 1.34375 -1.515625 1.28125 -1.8125 1.265625 -2.34375 Z M 1.296875 -3.015625 C 1.359375 -3.984375 1.953125 -4.625 2.796875 -4.625 C 3.640625 -4.625 4.234375 -3.953125 4.234375 -3.015625 Z M 1.296875 -3.015625 "/>
</g>
<g id="glyph-1-10">
<path d="M 3.921875 0 L 6.453125 -7.296875 L 5.453125 -7.296875 L 3.4375 -1.125 L 1.296875 -7.296875 L 0.296875 -7.296875 L 2.921875 0 Z M 3.921875 0 "/>
</g>
<g id="glyph-1-11">
<path d="M 0.9375 2.125 C 1.9375 0.8125 2.5625 -1.015625 2.5625 -2.578125 C 2.5625 -4.15625 1.9375 -5.984375 0.9375 -7.296875 L 0.375 -7.296875 C 1.265625 -5.859375 1.75 -4.1875 1.75 -2.578125 C 1.75 -0.984375 1.265625 0.703125 0.375 2.125 Z M 0.9375 2.125 "/>
</g>
<g id="glyph-1-12">
<path d="M 2.546875 -5.234375 L 1.6875 -5.234375 L 1.6875 -6.6875 L 0.84375 -6.6875 L 0.84375 -5.234375 L 0.140625 -5.234375 L 0.140625 -4.5625 L 0.84375 -4.5625 L 0.84375 -0.59375 C 0.84375 -0.0625 1.203125 0.234375 1.859375 0.234375 C 2.078125 0.234375 2.265625 0.203125 2.546875 0.15625 L 2.546875 -0.546875 C 2.421875 -0.515625 2.3125 -0.5 2.140625 -0.5 C 1.78125 -0.5 1.6875 -0.59375 1.6875 -0.96875 L 1.6875 -4.5625 L 2.546875 -4.5625 Z M 2.546875 -5.234375 "/>
</g>
<g id="glyph-1-13">
<path d="M 2.71875 -5.390625 C 1.234375 -5.390625 0.359375 -4.34375 0.359375 -2.578125 C 0.359375 -0.8125 1.234375 0.234375 2.734375 0.234375 C 4.203125 0.234375 5.09375 -0.8125 5.09375 -2.546875 C 5.09375 -4.359375 4.234375 -5.390625 2.71875 -5.390625 Z M 2.734375 -4.625 C 3.671875 -4.625 4.234375 -3.84375 4.234375 -2.546875 C 4.234375 -1.3125 3.65625 -0.546875 2.734375 -0.546875 C 1.796875 -0.546875 1.234375 -1.3125 1.234375 -2.578125 C 1.234375 -3.84375 1.796875 -4.625 2.734375 -4.625 Z M 2.734375 -4.625 "/>
</g>
<g id="glyph-1-14">
<path d="M 5.34375 -0.484375 C 5.265625 -0.46875 5.21875 -0.46875 5.171875 -0.46875 C 4.875 -0.46875 4.71875 -0.625 4.71875 -0.875 L 4.71875 -3.953125 C 4.71875 -4.890625 4.046875 -5.390625 2.75 -5.390625 C 1.984375 -5.390625 1.375 -5.171875 1.015625 -4.78125 C 0.765625 -4.515625 0.671875 -4.203125 0.65625 -3.6875 L 1.484375 -3.6875 C 1.5625 -4.328125 1.9375 -4.625 2.71875 -4.625 C 3.484375 -4.625 3.890625 -4.34375 3.890625 -3.84375 L 3.890625 -3.625 C 3.875 -3.265625 3.703125 -3.125 3.015625 -3.046875 C 1.84375 -2.890625 1.65625 -2.84375 1.34375 -2.71875 C 0.734375 -2.453125 0.421875 -2 0.421875 -1.3125 C 0.421875 -0.375 1.078125 0.234375 2.140625 0.234375 C 2.796875 0.234375 3.328125 0 3.921875 -0.546875 C 3.984375 0 4.234375 0.234375 4.78125 0.234375 C 4.953125 0.234375 5.0625 0.203125 5.34375 0.140625 Z M 3.890625 -1.65625 C 3.890625 -1.375 3.8125 -1.203125 3.5625 -0.96875 C 3.21875 -0.65625 2.8125 -0.5 2.3125 -0.5 C 1.671875 -0.5 1.296875 -0.8125 1.296875 -1.34375 C 1.296875 -1.890625 1.65625 -2.171875 2.546875 -2.296875 C 3.4375 -2.421875 3.609375 -2.453125 3.890625 -2.59375 Z M 3.890625 -1.65625 "/>
</g>
<g id="glyph-1-15">
<path d="M 1.515625 -7.296875 L 0.6875 -7.296875 L 0.6875 0 L 1.515625 0 Z M 1.515625 -7.296875 "/>
</g>
<g id="glyph-1-16">
<path d="M 0.890625 0 L 3.703125 0 C 5.546875 0 6.671875 -1.375 6.671875 -3.65625 C 6.671875 -5.90625 5.546875 -7.296875 3.703125 -7.296875 L 0.890625 -7.296875 Z M 1.8125 -0.8125 L 1.8125 -6.46875 L 3.546875 -6.46875 C 4.984375 -6.46875 5.734375 -5.5 5.734375 -3.640625 C 5.734375 -1.796875 4.984375 -0.8125 3.546875 -0.8125 Z M 1.8125 -0.8125 "/>
</g>
<g id="glyph-1-17">
<path d="M 3.890625 -7.40625 C 1.796875 -7.40625 0.375 -5.875 0.375 -3.59375 C 0.375 -1.296875 1.796875 0.234375 3.90625 0.234375 C 4.796875 0.234375 5.5625 -0.046875 6.15625 -0.546875 C 6.953125 -1.203125 7.421875 -2.34375 7.421875 -3.53125 C 7.421875 -5.875 6.03125 -7.40625 3.890625 -7.40625 Z M 3.890625 -6.59375 C 5.46875 -6.59375 6.484375 -5.40625 6.484375 -3.546875 C 6.484375 -1.796875 5.4375 -0.59375 3.90625 -0.59375 C 2.34375 -0.59375 1.3125 -1.796875 1.3125 -3.59375 C 1.3125 -5.390625 2.34375 -6.59375 3.890625 -6.59375 Z M 3.890625 -6.59375 "/>
</g>
<g id="glyph-1-18">
<path d="M 5.953125 -5.15625 C 5.953125 -5.65625 5.9375 -5.796875 5.765625 -6.125 C 5.375 -6.96875 4.515625 -7.40625 3.296875 -7.40625 C 1.6875 -7.40625 0.703125 -6.59375 0.703125 -5.265625 C 0.703125 -4.375 1.171875 -3.8125 2.125 -3.5625 L 3.9375 -3.09375 C 4.875 -2.84375 5.28125 -2.484375 5.28125 -1.90625 C 5.28125 -1.515625 5.0625 -1.125 4.765625 -0.90625 C 4.46875 -0.6875 4.015625 -0.59375 3.421875 -0.59375 C 2.625 -0.59375 2.09375 -0.78125 1.734375 -1.203125 C 1.46875 -1.515625 1.34375 -1.875 1.359375 -2.3125 L 0.484375 -2.3125 C 0.484375 -1.65625 0.625 -1.203125 0.90625 -0.8125 C 1.40625 -0.125 2.25 0.234375 3.359375 0.234375 C 4.234375 0.234375 4.9375 0.03125 5.40625 -0.328125 C 5.90625 -0.71875 6.203125 -1.375 6.203125 -2 C 6.203125 -2.90625 5.65625 -3.5625 4.65625 -3.828125 L 2.828125 -4.3125 C 1.953125 -4.5625 1.625 -4.84375 1.625 -5.40625 C 1.625 -6.140625 2.28125 -6.625 3.265625 -6.625 C 4.421875 -6.625 5.0625 -6.109375 5.078125 -5.15625 Z M 5.953125 -5.15625 "/>
</g>
<g id="glyph-2-0">
</g>
<g id="glyph-2-1">
<path d="M 0 -0.890625 L 0 -3.703125 C 0 -5.546875 -1.375 -6.671875 -3.65625 -6.671875 C -5.90625 -6.671875 -7.296875 -5.546875 -7.296875 -3.703125 L -7.296875 -0.890625 Z M -0.8125 -1.8125 L -6.46875 -1.8125 L -6.46875 -3.546875 C -6.46875 -4.984375 -5.5 -5.734375 -3.640625 -5.734375 C -1.796875 -5.734375 -0.8125 -4.984375 -0.8125 -3.546875 Z M -0.8125 -1.8125 "/>
</g>
<g id="glyph-2-2">
<path d="M -7.40625 -3.890625 C -7.40625 -1.796875 -5.875 -0.375 -3.59375 -0.375 C -1.296875 -0.375 0.234375 -1.796875 0.234375 -3.90625 C 0.234375 -4.796875 -0.046875 -5.5625 -0.546875 -6.15625 C -1.203125 -6.953125 -2.34375 -7.421875 -3.53125 -7.421875 C -5.875 -7.421875 -7.40625 -6.03125 -7.40625 -3.890625 Z M -6.59375 -3.890625 C -6.59375 -5.46875 -5.40625 -6.484375 -3.546875 -6.484375 C -1.796875 -6.484375 -0.59375 -5.4375 -0.59375 -3.90625 C -0.59375 -2.34375 -1.796875 -1.3125 -3.59375 -1.3125 C -5.390625 -1.3125 -6.59375 -2.34375 -6.59375 -3.890625 Z M -6.59375 -3.890625 "/>
</g>
<g id="glyph-2-3">
<path d="M -5.15625 -5.953125 C -5.65625 -5.953125 -5.796875 -5.9375 -6.125 -5.765625 C -6.96875 -5.375 -7.40625 -4.515625 -7.40625 -3.296875 C -7.40625 -1.6875 -6.59375 -0.703125 -5.265625 -0.703125 C -4.375 -0.703125 -3.8125 -1.171875 -3.5625 -2.125 L -3.09375 -3.9375 C -2.84375 -4.875 -2.484375 -5.28125 -1.90625 -5.28125 C -1.515625 -5.28125 -1.125 -5.0625 -0.90625 -4.765625 C -0.6875 -4.46875 -0.59375 -4.015625 -0.59375 -3.421875 C -0.59375 -2.625 -0.78125 -2.09375 -1.203125 -1.734375 C -1.515625 -1.46875 -1.875 -1.34375 -2.3125 -1.359375 L -2.3125 -0.484375 C -1.65625 -0.484375 -1.203125 -0.625 -0.8125 -0.90625 C -0.125 -1.40625 0.234375 -2.25 0.234375 -3.359375 C 0.234375 -4.234375 0.03125 -4.9375 -0.328125 -5.40625 C -0.71875 -5.90625 -1.375 -6.203125 -2 -6.203125 C -2.90625 -6.203125 -3.5625 -5.65625 -3.828125 -4.65625 L -4.3125 -2.828125 C -4.5625 -1.953125 -4.84375 -1.625 -5.40625 -1.625 C -6.140625 -1.625 -6.625 -2.28125 -6.625 -3.265625 C -6.625 -4.421875 -6.109375 -5.0625 -5.15625 -5.078125 Z M -5.15625 -5.953125 "/>
</g>
<g id="glyph-2-4">
</g>
<g id="glyph-2-5">
<path d="M -7.296875 -2.359375 C -5.984375 -1.359375 -4.15625 -0.734375 -2.59375 -0.734375 C -1.015625 -0.734375 0.8125 -1.359375 2.125 -2.359375 L 2.125 -2.90625 C 0.6875 -2.03125 -0.984375 -1.546875 -2.59375 -1.546875 C -4.1875 -1.546875 -5.875 -2.03125 -7.296875 -2.90625 Z M -7.296875 -2.359375 "/>
</g>
<g id="glyph-2-6">
<path d="M -3.78125 -4.375 C -4.8125 -4.375 -5.390625 -3.6875 -5.390625 -2.484375 C -5.390625 -1.265625 -4.765625 -0.46875 -3.796875 -0.46875 C -2.96875 -0.46875 -2.578125 -0.890625 -2.28125 -2.125 L -2.09375 -2.90625 C -1.953125 -3.484375 -1.734375 -3.71875 -1.375 -3.71875 C -0.875 -3.71875 -0.546875 -3.234375 -0.546875 -2.5 C -0.546875 -2.046875 -0.671875 -1.671875 -0.890625 -1.453125 C -1.046875 -1.328125 -1.1875 -1.265625 -1.5625 -1.21875 L -1.5625 -0.34375 C -0.34375 -0.375 0.234375 -1.0625 0.234375 -2.4375 C 0.234375 -3.75 -0.421875 -4.59375 -1.4375 -4.59375 C -2.203125 -4.59375 -2.640625 -4.15625 -2.890625 -3.109375 L -3.078125 -2.3125 C -3.234375 -1.625 -3.453125 -1.34375 -3.828125 -1.34375 C -4.3125 -1.34375 -4.625 -1.765625 -4.625 -2.453125 C -4.625 -3.125 -4.328125 -3.484375 -3.78125 -3.5 Z M -3.78125 -4.375 "/>
</g>
<g id="glyph-2-7">
<path d="M -5.234375 -2.546875 L -5.234375 -1.6875 L -6.6875 -1.6875 L -6.6875 -0.84375 L -5.234375 -0.84375 L -5.234375 -0.140625 L -4.5625 -0.140625 L -4.5625 -0.84375 L -0.59375 -0.84375 C -0.0625 -0.84375 0.234375 -1.203125 0.234375 -1.859375 C 0.234375 -2.078125 0.203125 -2.265625 0.15625 -2.546875 L -0.546875 -2.546875 C -0.515625 -2.421875 -0.5 -2.3125 -0.5 -2.140625 C -0.5 -1.78125 -0.59375 -1.6875 -0.96875 -1.6875 L -4.5625 -1.6875 L -4.5625 -2.546875 Z M -5.234375 -2.546875 "/>
</g>
<g id="glyph-2-8">
<path d="M -0.484375 -5.34375 C -0.46875 -5.265625 -0.46875 -5.21875 -0.46875 -5.171875 C -0.46875 -4.875 -0.625 -4.71875 -0.875 -4.71875 L -3.953125 -4.71875 C -4.890625 -4.71875 -5.390625 -4.046875 -5.390625 -2.75 C -5.390625 -1.984375 -5.171875 -1.375 -4.78125 -1.015625 C -4.515625 -0.765625 -4.203125 -0.671875 -3.6875 -0.65625 L -3.6875 -1.484375 C -4.328125 -1.5625 -4.625 -1.9375 -4.625 -2.71875 C -4.625 -3.484375 -4.34375 -3.890625 -3.84375 -3.890625 L -3.625 -3.890625 C -3.265625 -3.875 -3.125 -3.703125 -3.046875 -3.015625 C -2.890625 -1.84375 -2.84375 -1.65625 -2.71875 -1.34375 C -2.453125 -0.734375 -2 -0.421875 -1.3125 -0.421875 C -0.375 -0.421875 0.234375 -1.078125 0.234375 -2.140625 C 0.234375 -2.796875 0 -3.328125 -0.546875 -3.921875 C 0 -3.984375 0.234375 -4.234375 0.234375 -4.78125 C 0.234375 -4.953125 0.203125 -5.0625 0.140625 -5.34375 Z M -1.65625 -3.890625 C -1.375 -3.890625 -1.203125 -3.8125 -0.96875 -3.5625 C -0.65625 -3.21875 -0.5 -2.8125 -0.5 -2.3125 C -0.5 -1.671875 -0.8125 -1.296875 -1.34375 -1.296875 C -1.890625 -1.296875 -2.171875 -1.65625 -2.296875 -2.546875 C -2.421875 -3.4375 -2.453125 -3.609375 -2.59375 -3.890625 Z M -1.65625 -3.890625 "/>
</g>
<g id="glyph-2-9">
<path d="M -2.34375 -5.125 C -3.140625 -5.125 -3.625 -5.0625 -4.015625 -4.921875 C -4.875 -4.578125 -5.390625 -3.78125 -5.390625 -2.796875 C -5.390625 -1.34375 -4.28125 -0.40625 -2.546875 -0.40625 C -0.8125 -0.40625 0.234375 -1.296875 0.234375 -2.78125 C 0.234375 -3.984375 -0.453125 -4.8125 -1.59375 -5.015625 L -1.59375 -4.1875 C -0.90625 -3.953125 -0.546875 -3.484375 -0.546875 -2.8125 C -0.546875 -2.28125 -0.78125 -1.828125 -1.21875 -1.546875 C -1.515625 -1.34375 -1.8125 -1.28125 -2.34375 -1.265625 Z M -3.015625 -1.296875 C -3.984375 -1.359375 -4.625 -1.953125 -4.625 -2.796875 C -4.625 -3.640625 -3.953125 -4.234375 -3.015625 -4.234375 Z M -3.015625 -1.296875 "/>
</g>
<g id="glyph-2-10">
<path d="M -7.296875 -2.296875 L 0.203125 0.078125 L 0.203125 -0.46875 L -7.296875 -2.84375 Z M -7.296875 -2.296875 "/>
</g>
<g id="glyph-2-11">
<path d="M 0 -3.921875 L -7.296875 -6.453125 L -7.296875 -5.453125 L -1.125 -3.4375 L -7.296875 -1.296875 L -7.296875 -0.296875 L 0 -2.921875 Z M 0 -3.921875 "/>
</g>
<g id="glyph-2-12">
<path d="M 2.125 -0.9375 C 0.8125 -1.9375 -1.015625 -2.5625 -2.578125 -2.5625 C -4.15625 -2.5625 -5.984375 -1.9375 -7.296875 -0.9375 L -7.296875 -0.375 C -5.859375 -1.265625 -4.1875 -1.75 -2.578125 -1.75 C -0.984375 -1.75 0.703125 -1.265625 2.125 -0.375 Z M 2.125 -0.9375 "/>
</g>
<g id="glyph-3-0">
</g>
<g id="glyph-3-1">
<path d="M 3.140625 0 L 5.15625 -5.828125 L 4.375 -5.828125 L 2.75 -0.890625 L 1.046875 -5.828125 L 0.234375 -5.828125 L 2.34375 0 Z M 3.140625 0 "/>
</g>
<g id="glyph-3-2">
<path d="M 0.625 0 L 3.265625 0 C 3.8125 0 4.21875 -0.15625 4.53125 -0.484375 C 4.828125 -0.796875 4.984375 -1.203125 4.984375 -1.65625 C 4.984375 -2.375 4.65625 -2.796875 3.921875 -3.078125 C 4.453125 -3.328125 4.734375 -3.75 4.734375 -4.359375 C 4.734375 -4.78125 4.5625 -5.15625 4.265625 -5.421875 C 3.953125 -5.703125 3.5625 -5.828125 3 -5.828125 L 0.625 -5.828125 Z M 1.375 -3.3125 L 1.375 -5.171875 L 2.8125 -5.171875 C 3.234375 -5.171875 3.46875 -5.125 3.65625 -4.96875 C 3.875 -4.8125 3.984375 -4.5625 3.984375 -4.25 C 3.984375 -3.921875 3.875 -3.6875 3.65625 -3.53125 C 3.46875 -3.375 3.234375 -3.3125 2.8125 -3.3125 Z M 1.375 -0.65625 L 1.375 -2.65625 L 3.1875 -2.65625 C 3.84375 -2.65625 4.234375 -2.28125 4.234375 -1.65625 C 4.234375 -1.03125 3.84375 -0.65625 3.1875 -0.65625 Z M 1.375 -0.65625 "/>
</g>
<g id="glyph-3-3">
<path d="M 3.75 0 L 5.390625 -4.890625 L 5.390625 0 L 6.09375 0 L 6.09375 -5.828125 L 5.0625 -5.828125 L 3.359375 -0.75 L 1.625 -5.828125 L 0.59375 -5.828125 L 0.59375 0 L 1.296875 0 L 1.296875 -4.890625 L 2.953125 0 Z M 3.75 0 "/>
</g>
</g>
</defs>
<path fill="none" stroke-width="5" stroke-linecap="butt" stroke-linejoin="miter" stroke="rgb(0%, 0%, 0%)" stroke-opacity="1" stroke-miterlimit="3.8" d="M 430 420 L 461.484375 420 M 3419.492188 420 L 3388.007812 420 " transform="matrix(0.1, 0, 0, -0.1, 0, 252)"/>
<g fill="rgb(0%, 0%, 0%)" fill-opacity="1">
<use xlink:href="#glyph-0-1" x="24.4902" y="213"/>
<use xlink:href="#glyph-0-2" x="29.4942" y="213"/>
<use xlink:href="#glyph-0-1" x="31.9962" y="213"/>
</g>
<path fill="none" stroke-width="5" stroke-linecap="butt" stroke-linejoin="miter" stroke="rgb(0%, 0%, 0%)" stroke-opacity="1" stroke-miterlimit="3.8" d="M 430 753.515625 L 461.484375 753.515625 M 3419.492188 753.515625 L 3388.007812 753.515625 " transform="matrix(0.1, 0, 0, -0.1, 0, 252)"/>
<g fill="rgb(0%, 0%, 0%)" fill-opacity="1">
<use xlink:href="#glyph-0-3" x="24.4902" y="179.65"/>
<use xlink:href="#glyph-0-2" x="29.4942" y="179.65"/>
<use xlink:href="#glyph-0-1" x="31.9962" y="179.65"/>
</g>
<path fill="none" stroke-width="5" stroke-linecap="butt" stroke-linejoin="miter" stroke="rgb(0%, 0%, 0%)" stroke-opacity="1" stroke-miterlimit="3.8" d="M 430 1086.484375 L 461.484375 1086.484375 M 3419.492188 1086.484375 L 3388.007812 1086.484375 " transform="matrix(0.1, 0, 0, -0.1, 0, 252)"/>
<g fill="rgb(0%, 0%, 0%)" fill-opacity="1">
<use xlink:href="#glyph-0-4" x="24.4902" y="146.35"/>
<use xlink:href="#glyph-0-2" x="29.4942" y="146.35"/>
<use xlink:href="#glyph-0-1" x="31.9962" y="146.35"/>
</g>
<path fill="none" stroke-width="5" stroke-linecap="butt" stroke-linejoin="miter" stroke="rgb(0%, 0%, 0%)" stroke-opacity="1" stroke-miterlimit="3.8" d="M 430 1420 L 461.484375 1420 M 3419.492188 1420 L 3388.007812 1420 " transform="matrix(0.1, 0, 0, -0.1, 0, 252)"/>
<g fill="rgb(0%, 0%, 0%)" fill-opacity="1">
<use xlink:href="#glyph-0-5" x="24.4902" y="113"/>
<use xlink:href="#glyph-0-2" x="29.4942" y="113"/>
<use xlink:href="#glyph-0-1" x="31.9962" y="113"/>
</g>
<path fill="none" stroke-width="5" stroke-linecap="butt" stroke-linejoin="miter" stroke="rgb(0%, 0%, 0%)" stroke-opacity="1" stroke-miterlimit="3.8" d="M 430 1753.007812 L 461.484375 1753.007812 M 3419.492188 1753.007812 L 3388.007812 1753.007812 " transform="matrix(0.1, 0, 0, -0.1, 0, 252)"/>
<g fill="rgb(0%, 0%, 0%)" fill-opacity="1">
<use xlink:href="#glyph-0-6" x="24.4902" y="79.7"/>
<use xlink:href="#glyph-0-2" x="29.4942" y="79.7"/>
<use xlink:href="#glyph-0-1" x="31.9962" y="79.7"/>
</g>
<path fill="none" stroke-width="5" stroke-linecap="butt" stroke-linejoin="miter" stroke="rgb(0%, 0%, 0%)" stroke-opacity="1" stroke-miterlimit="3.8" d="M 430 2086.484375 L 461.484375 2086.484375 M 3419.492188 2086.484375 L 3388.007812 2086.484375 " transform="matrix(0.1, 0, 0, -0.1, 0, 252)"/>
<g fill="rgb(0%, 0%, 0%)" fill-opacity="1">
<use xlink:href="#glyph-0-7" x="24.4902" y="46.35"/>
<use xlink:href="#glyph-0-2" x="29.4942" y="46.35"/>
<use xlink:href="#glyph-0-1" x="31.9962" y="46.35"/>
</g>
<path fill="none" stroke-width="5" stroke-linecap="butt" stroke-linejoin="miter" stroke="rgb(0%, 0%, 0%)" stroke-opacity="1" stroke-miterlimit="3.8" d="M 430 2419.492188 L 461.484375 2419.492188 M 3419.492188 2419.492188 L 3388.007812 2419.492188 " transform="matrix(0.1, 0, 0, -0.1, 0, 252)"/>
<g fill="rgb(0%, 0%, 0%)" fill-opacity="1">
<use xlink:href="#glyph-0-8" x="24.4902" y="13.05"/>
<use xlink:href="#glyph-0-2" x="29.4942" y="13.05"/>
<use xlink:href="#glyph-0-1" x="31.9962" y="13.05"/>
</g>
<path fill="none" stroke-width="5" stroke-linecap="butt" stroke-linejoin="miter" stroke="rgb(0%, 0%, 0%)" stroke-opacity="1" stroke-miterlimit="3.8" d="M 430 420 L 430 451.484375 M 430 2419.492188 L 430 2388.007812 " transform="matrix(0.1, 0, 0, -0.1, 0, 252)"/>
<g fill="rgb(0%, 0%, 0%)" fill-opacity="1">
<use xlink:href="#glyph-1-1" x="34.5203" y="223.3352"/>
<use xlink:href="#glyph-1-2" x="40.3603" y="223.3352"/>
<use xlink:href="#glyph-1-3" x="45.9203" y="223.3352"/>
</g>
<path fill="none" stroke-width="5" stroke-linecap="butt" stroke-linejoin="miter" stroke="rgb(0%, 0%, 0%)" stroke-opacity="1" stroke-miterlimit="3.8" d="M 928.515625 420 L 928.515625 451.484375 M 928.515625 2419.492188 L 928.515625 2388.007812 " transform="matrix(0.1, 0, 0, -0.1, 0, 252)"/>
<g fill="rgb(0%, 0%, 0%)" fill-opacity="1">
<use xlink:href="#glyph-1-1" x="84.3703" y="223.3352"/>
<use xlink:href="#glyph-1-4" x="90.2103" y="223.3352"/>
<use xlink:href="#glyph-1-5" x="95.7703" y="223.3352"/>
</g>
<path fill="none" stroke-width="5" stroke-linecap="butt" stroke-linejoin="miter" stroke="rgb(0%, 0%, 0%)" stroke-opacity="1" stroke-miterlimit="3.8" d="M 1426.484375 420 L 1426.484375 451.484375 M 1426.484375 2419.492188 L 1426.484375 2388.007812 " transform="matrix(0.1, 0, 0, -0.1, 0, 252)"/>
<g fill="rgb(0%, 0%, 0%)" fill-opacity="1">
<use xlink:href="#glyph-1-1" x="134.17" y="223.3352"/>
<use xlink:href="#glyph-1-4" x="140.01" y="223.3352"/>
<use xlink:href="#glyph-1-3" x="145.57" y="223.3352"/>
</g>
<path fill="none" stroke-width="5" stroke-linecap="butt" stroke-linejoin="miter" stroke="rgb(0%, 0%, 0%)" stroke-opacity="1" stroke-miterlimit="3.8" d="M 1925 420 L 1925 451.484375 M 1925 2419.492188 L 1925 2388.007812 " transform="matrix(0.1, 0, 0, -0.1, 0, 252)"/>
<g fill="rgb(0%, 0%, 0%)" fill-opacity="1">
<use xlink:href="#glyph-1-1" x="186.8" y="223.3352"/>
<use xlink:href="#glyph-1-5" x="192.64" y="223.3352"/>
</g>
<path fill="none" stroke-width="5" stroke-linecap="butt" stroke-linejoin="miter" stroke="rgb(0%, 0%, 0%)" stroke-opacity="1" stroke-miterlimit="3.8" d="M 2423.007812 420 L 2423.007812 451.484375 M 2423.007812 2419.492188 L 2423.007812 2388.007812 " transform="matrix(0.1, 0, 0, -0.1, 0, 252)"/>
<g fill="rgb(0%, 0%, 0%)" fill-opacity="1">
<use xlink:href="#glyph-1-6" x="238.13" y="223.3352"/>
<use xlink:href="#glyph-1-3" x="240.91" y="223.3352"/>
</g>
<path fill="none" stroke-width="5" stroke-linecap="butt" stroke-linejoin="miter" stroke="rgb(0%, 0%, 0%)" stroke-opacity="1" stroke-miterlimit="3.8" d="M 2921.484375 420 L 2921.484375 451.484375 M 2921.484375 2419.492188 L 2921.484375 2388.007812 " transform="matrix(0.1, 0, 0, -0.1, 0, 252)"/>
<g fill="rgb(0%, 0%, 0%)" fill-opacity="1">
<use xlink:href="#glyph-1-6" x="287.98" y="223.3352"/>
<use xlink:href="#glyph-1-5" x="290.76" y="223.3352"/>
</g>
<path fill="none" stroke-width="5" stroke-linecap="butt" stroke-linejoin="miter" stroke="rgb(0%, 0%, 0%)" stroke-opacity="1" stroke-miterlimit="3.8" d="M 3419.492188 420 L 3419.492188 451.484375 M 3419.492188 2419.492188 L 3419.492188 2388.007812 " transform="matrix(0.1, 0, 0, -0.1, 0, 252)"/>
<g fill="rgb(0%, 0%, 0%)" fill-opacity="1">
<use xlink:href="#glyph-1-6" x="335" y="223.3352"/>
<use xlink:href="#glyph-1-4" x="337.78" y="223.3352"/>
<use xlink:href="#glyph-1-3" x="343.34" y="223.3352"/>
</g>
<path fill="none" stroke-width="1.25" stroke-linecap="butt" stroke-linejoin="miter" stroke="rgb(0%, 0%, 0%)" stroke-opacity="1" stroke-dasharray="5 10" stroke-miterlimit="3.8" d="M 2423.007812 420 L 2423.007812 2419.492188 " transform="matrix(0.1, 0, 0, -0.1, 0, 252)"/>
<path fill="none" stroke-width="10" stroke-linecap="butt" stroke-linejoin="miter" stroke="rgb(0%, 0%, 0%)" stroke-opacity="1" stroke-miterlimit="3.8" d="M 430 2419.492188 L 430 420 L 3419.492188 420 L 3419.492188 2419.492188 Z M 430 2419.492188 " transform="matrix(0.1, 0, 0, -0.1, 0, 252)"/>
<g fill="rgb(0%, 0%, 0%)" fill-opacity="1">
<use xlink:href="#glyph-2-1" x="12.8352" y="146.448"/>
<use xlink:href="#glyph-2-2" x="12.8352" y="139.228"/>
<use xlink:href="#glyph-2-3" x="12.8352" y="131.448"/>
<use xlink:href="#glyph-2-4" x="12.8352" y="124.778"/>
<use xlink:href="#glyph-2-5" x="12.8352" y="121.998"/>
<use xlink:href="#glyph-2-6" x="12.8352" y="118.668"/>
<use xlink:href="#glyph-2-7" x="12.8352" y="113.668"/>
<use xlink:href="#glyph-2-8" x="12.8352" y="110.888"/>
<use xlink:href="#glyph-2-7" x="12.8352" y="105.328"/>
<use xlink:href="#glyph-2-9" x="12.8352" y="102.548"/>
<use xlink:href="#glyph-2-6" x="12.8352" y="96.988"/>
<use xlink:href="#glyph-2-10" x="12.8352" y="91.988"/>
<use xlink:href="#glyph-2-9" x="12.8352" y="89.208"/>
<use xlink:href="#glyph-2-11" x="12.8352" y="83.648"/>
<use xlink:href="#glyph-2-12" x="12.8352" y="76.978"/>
</g>
<g fill="rgb(0%, 0%, 0%)" fill-opacity="1">
<use xlink:href="#glyph-1-7" x="163.358" y="237.3352"/>
<use xlink:href="#glyph-1-1" x="170.028" y="237.3352"/>
<use xlink:href="#glyph-1-7" x="175.868" y="237.3352"/>
</g>
<g fill="rgb(0%, 0%, 0%)" fill-opacity="1">
<use xlink:href="#glyph-3-1" x="182.5381" y="240.3352"/>
<use xlink:href="#glyph-3-2" x="187.8741" y="240.3352"/>
<use xlink:href="#glyph-3-3" x="193.2101" y="240.3352"/>
</g>
<g fill="rgb(0%, 0%, 0%)" fill-opacity="1">
<use xlink:href="#glyph-1-6" x="199.874" y="237.3352"/>
<use xlink:href="#glyph-1-8" x="202.654" y="237.3352"/>
<use xlink:href="#glyph-1-9" x="205.984" y="237.3352"/>
<use xlink:href="#glyph-1-10" x="211.544" y="237.3352"/>
<use xlink:href="#glyph-1-11" x="218.214" y="237.3352"/>
</g>
<g fill="rgb(0%, 0%, 0%)" fill-opacity="1">
<use xlink:href="#glyph-1-12" x="253.4517" y="21.5352"/>
<use xlink:href="#glyph-1-13" x="256.2317" y="21.5352"/>
<use xlink:href="#glyph-1-12" x="261.7917" y="21.5352"/>
<use xlink:href="#glyph-1-14" x="264.5717" y="21.5352"/>
<use xlink:href="#glyph-1-15" x="270.1317" y="21.5352"/>
<use xlink:href="#glyph-1-6" x="272.3517" y="21.5352"/>
<use xlink:href="#glyph-1-16" x="275.1317" y="21.5352"/>
<use xlink:href="#glyph-1-17" x="282.3517" y="21.5352"/>
<use xlink:href="#glyph-1-18" x="290.1317" y="21.5352"/>
</g>
<path fill-rule="nonzero" fill="rgb(75%, 75%, 75%)" fill-opacity="1" d="M 302.800781 20.699219 L 329.949219 20.699219 L 329.949219 15.699219 L 302.800781 15.699219 Z M 302.800781 20.699219 "/>
<path fill-rule="nonzero" fill="rgb(75%, 75%, 75%)" fill-opacity="1" d="M 84.351562 210 L 94.75 210 L 94.898438 209.949219 L 95.101562 209.851562 L 95.25 209.699219 L 95.398438 209.300781 L 95.601562 208.398438 L 95.75 206.699219 L 95.949219 203.898438 L 96.101562 200.398438 L 96.300781 197.25 L 96.449219 195.101562 L 96.601562 193.898438 L 96.800781 193.351562 L 96.949219 193.050781 L 97.148438 192.699219 L 97.300781 192.800781 L 97.5 192.898438 L 97.648438 192.398438 L 97.800781 192.148438 L 98 192.699219 L 98.148438 192.949219 L 98.300781 192.148438 L 98.5 191.449219 L 98.648438 192 L 98.851562 193 L 99 192.851562 L 99.199219 191.351562 L 99.351562 190.601562 L 99.5 191.5 L 99.699219 192.75 L 99.851562 193 L 100.050781 191.648438 L 100.199219 189.800781 L 100.351562 189.851562 L 100.550781 191.601562 L 100.699219 193 L 100.898438 192.648438 L 101.050781 190.949219 L 101.199219 189.101562 L 101.398438 188.75 L 101.550781 190.398438 L 101.75 192.5 L 101.898438 193.050781 L 102.101562 191.25 L 102.25 188.75 L 102.398438 187.75 L 102.601562 188.550781 L 102.75 190.300781 L 102.949219 192.050781 L 103.101562 192.601562 L 103.25 190.699219 L 103.449219 187.449219 L 103.601562 186.101562 L 103.800781 187.550781 L 103.949219 189.699219 L 104.101562 191.199219 L 104.300781 191.550781 L 104.449219 190.5 L 104.648438 187.75 L 104.800781 184.949219 L 104.949219 185 L 105.148438 187.648438 L 105.300781 190.148438 L 105.5 191 L 105.648438 190.050781 L 105.851562 187.699219 L 106 185.148438 L 106.148438 183.601562 L 106.351562 184.25 L 106.5 186.851562 L 106.648438 189.398438 L 106.851562 190 L 107 188 L 107.199219 184.148438 L 107.351562 180.648438 L 107.550781 178.601562 L 107.699219 176.25 L 107.851562 172.601562 L 108.050781 168.199219 L 108.199219 163.25 L 108.398438 157.550781 L 108.550781 151.5 L 108.75 147.601562 L 108.898438 147.699219 L 109.050781 149.699219 L 109.25 151.199219 L 109.398438 152.25 L 109.550781 151.800781 L 109.75 148.648438 L 109.898438 144.199219 L 110.101562 141.351562 L 110.25 142.398438 L 110.449219 145.300781 L 110.601562 146.5 L 110.75 146.101562 L 110.949219 144.398438 L 111.101562 140.148438 L 111.300781 135.300781 L 111.449219 134.398438 L 111.648438 137.199219 L 111.800781 139 L 111.949219 138.300781 L 112.148438 136.300781 L 112.300781 132.101562 L 112.449219 126.5 L 112.648438 124.101562 L 112.800781 126.398438 L 113 128.550781 L 113.148438 126.648438 L 113.351562 121.25 L 113.5 115 L 113.648438 110.601562 L 113.851562 108.550781 L 114 107.550781 L 114.199219 105.25 L 114.351562 97.351562 L 114.5 84.101562 L 114.699219 73.949219 L 114.851562 73.25 L 115.050781 76.550781 L 115.199219 75.949219 L 115.351562 74.851562 L 115.550781 80.300781 L 115.699219 87.148438 L 115.898438 87.75 L 116.050781 85.300781 L 116.199219 85.199219 L 116.398438 84.949219 L 116.550781 81.050781 L 116.75 76.300781 L 116.898438 71.601562 L 117.101562 63.699219 L 117.25 54.699219 L 117.398438 48.75 L 117.601562 48.550781 L 117.75 58.148438 L 117.949219 74.648438 L 118.101562 90.699219 L 118.25 104 L 118.449219 114.300781 L 118.601562 122.648438 L 118.800781 130.699219 L 118.949219 140 L 119.101562 152.398438 L 119.300781 168.101562 L 119.449219 184 L 119.648438 196.199219 L 119.800781 203.449219 L 120 207.101562 L 120.148438 208.75 L 120.300781 209.5 L 120.5 209.800781 L 120.648438 209.949219 L 120.800781 210 L 178.601562 210 L 178.800781 209.949219 L 178.949219 209.898438 L 179.148438 209.75 L 179.300781 209.398438 L 179.449219 208.601562 L 179.648438 206.898438 L 179.800781 203.699219 L 180 198.75 L 180.148438 193.148438 L 180.300781 188.5 L 180.5 185.199219 L 180.648438 183.199219 L 180.851562 182.699219 L 181 182.449219 L 181.148438 180.300781 L 181.351562 176.5 L 181.5 173.851562 L 181.699219 173.601562 L 181.851562 173.5 L 182.050781 170.398438 L 182.199219 165.5 L 182.351562 163.800781 L 182.550781 166.601562 L 182.699219 169.75 L 182.898438 170.300781 L 183.050781 168.300781 L 183.199219 164.75 L 183.398438 161.699219 L 183.550781 161.601562 L 183.75 163.699219 L 183.898438 166.800781 L 184.050781 169.351562 L 184.25 168.101562 L 184.398438 162.351562 L 184.601562 156.75 L 184.75 156.75 L 184.898438 160.800781 L 185.101562 164.25 L 185.25 165.101562 L 185.449219 162.800781 L 185.601562 158.648438 L 185.75 155.199219 L 185.949219 154.449219 L 186.101562 155.949219 L 186.300781 157.050781 L 186.449219 156.898438 L 186.648438 155.300781 L 186.800781 151.699219 L 186.949219 148.199219 L 187.148438 146.601562 L 187.300781 146.648438 L 187.5 145.949219 L 187.648438 142.199219 L 187.800781 135.601562 L 188 129.300781 L 188.148438 127.449219 L 188.351562 131.101562 L 188.5 137.351562 L 188.648438 142.800781 L 188.851562 146.25 L 189 148 L 189.199219 147.601562 L 189.351562 144.398438 L 189.5 139.898438 L 189.699219 135.898438 L 189.851562 132.699219 L 190.050781 130.398438 L 190.199219 128.25 L 190.398438 125.398438 L 190.550781 122.550781 L 190.699219 118.699219 L 190.898438 113.648438 L 191.050781 109.851562 L 191.25 107.949219 L 191.398438 105.648438 L 191.550781 99.949219 L 191.75 91.800781 L 191.898438 85.851562 L 192.101562 83.949219 L 192.25 86.449219 L 192.398438 92.199219 L 192.601562 99.050781 L 192.75 108.550781 L 192.949219 121 L 193.101562 132.148438 L 193.300781 140.050781 L 193.449219 146.199219 L 193.601562 151.300781 L 193.800781 155.75 L 193.949219 161.199219 L 194.148438 167.75 L 194.300781 173.050781 L 194.449219 176.300781 L 194.648438 178.300781 L 194.800781 177.949219 L 195 175.550781 L 195.148438 174.300781 L 195.300781 175.25 L 195.5 177.25 L 195.648438 179.550781 L 195.851562 182.101562 L 196 184.898438 L 196.148438 186.398438 L 196.351562 185.101562 L 196.5 181.550781 L 196.699219 179.25 L 196.851562 179.25 L 197.050781 178.148438 L 197.199219 173.5 L 197.351562 165.101562 L 197.550781 154.148438 L 197.699219 140.300781 L 197.898438 122.699219 L 198.050781 107.351562 L 198.199219 102.050781 L 198.398438 106.148438 L 198.550781 115.101562 L 198.75 123.148438 L 198.898438 125.898438 L 199.050781 124 L 199.25 120.601562 L 199.398438 120.300781 L 199.601562 123.351562 L 199.75 124.550781 L 199.949219 120.050781 L 200.101562 111.199219 L 200.25 102.351562 L 200.449219 96.351562 L 200.601562 91.199219 L 200.75 81.148438 L 200.949219 64.300781 L 201.101562 47.851562 L 201.300781 39.101562 L 201.449219 40.199219 L 201.648438 49.398438 L 201.800781 60.898438 L 201.949219 68.949219 L 202.148438 69.5 L 202.300781 64.199219 L 202.5 63.148438 L 202.648438 76.449219 L 202.851562 103 L 203 132.601562 L 203.148438 155.75 L 203.351562 168.449219 L 203.5 171.5 L 203.648438 171.648438 L 203.851562 176.148438 L 204 184.199219 L 204.199219 190 L 204.351562 189.75 L 204.550781 184.800781 L 204.699219 179.5 L 204.851562 178.148438 L 205.050781 180.398438 L 205.199219 181.148438 L 205.398438 176.75 L 205.550781 168.949219 L 205.699219 161.949219 L 205.898438 159.199219 L 206.050781 162.351562 L 206.25 168.800781 L 206.398438 173.601562 L 206.550781 175.5 L 206.75 176.101562 L 206.898438 176.050781 L 207.101562 175.351562 L 207.25 174.351562 L 207.449219 173.648438 L 207.601562 172.800781 L 207.75 169.898438 L 207.949219 165.398438 L 208.101562 163.199219 L 208.300781 163.050781 L 208.449219 158 L 208.601562 143.101562 L 208.800781 120.699219 L 208.949219 97.148438 L 209.148438 76.851562 L 209.300781 60.550781 L 209.449219 48.550781 L 209.648438 41 L 209.800781 40.300781 L 210 50.949219 L 210.148438 70.648438 L 210.300781 92.449219 L 210.5 110 L 210.648438 118.949219 L 210.851562 118.050781 L 211 115.699219 L 211.199219 120.101562 L 211.351562 125.199219 L 211.5 122.449219 L 211.699219 114 L 211.851562 106.351562 L 212 104.148438 L 212.199219 107.050781 L 212.351562 110.351562 L 212.550781 111.101562 L 212.699219 109.949219 L 212.898438 109 L 213.050781 111.101562 L 213.199219 117.648438 L 213.398438 124.699219 L 213.550781 127.851562 L 213.75 129.601562 L 213.898438 134.800781 L 214.101562 142.101562 L 214.25 147.398438 L 214.398438 148.550781 L 214.601562 144.199219 L 214.75 137 L 214.898438 133.601562 L 215.101562 136.898438 L 215.25 143.101562 L 215.449219 148.148438 L 215.601562 150.949219 L 215.800781 152.648438 L 215.949219 155.300781 L 216.101562 160.300781 L 216.300781 166.101562 L 216.449219 169 L 216.648438 168.398438 L 216.800781 166.101562 L 216.949219 162.699219 L 217.148438 159.601562 L 217.300781 156.699219 L 217.5 150.949219 L 217.648438 144.300781 L 217.800781 143.648438 L 218 150.199219 L 218.148438 157.300781 L 218.351562 160.898438 L 218.5 162.199219 L 218.699219 162.898438 L 218.851562 162.851562 L 219 162.199219 L 219.199219 160.300781 L 219.351562 155.300781 L 219.550781 147.648438 L 219.699219 140.5 L 219.851562 133.800781 L 220.050781 126.101562 L 220.199219 117.699219 L 220.398438 109.800781 L 220.550781 101.199219 L 220.699219 92.550781 L 220.898438 87.449219 L 221.050781 83.949219 L 221.25 72.050781 L 221.398438 47.851562 L 221.550781 26.398438 L 221.75 23.449219 L 221.898438 35.449219 L 222.101562 50.699219 L 222.25 63.148438 L 222.449219 71.25 L 222.601562 75.851562 L 222.75 76.25 L 222.949219 72.148438 L 223.101562 66.550781 L 223.25 61.851562 L 223.449219 58.648438 L 223.601562 58.199219 L 223.800781 61.550781 L 223.949219 68.398438 L 224.148438 78.148438 L 224.300781 89.351562 L 224.449219 102 L 224.648438 114.300781 L 224.800781 120.398438 L 225 118 L 225.148438 109.949219 L 225.351562 99.75 L 225.5 94.351562 L 225.648438 98.25 L 225.851562 107.449219 L 226 117.648438 L 226.148438 127.300781 L 226.351562 133.601562 L 226.5 134.648438 L 226.699219 130.699219 L 226.851562 124 L 227.050781 120.699219 L 227.199219 125.949219 L 227.351562 136.101562 L 227.550781 143.199219 L 227.699219 142.699219 L 227.898438 137.300781 L 228.050781 133.199219 L 228.25 134.101562 L 228.398438 138.398438 L 228.550781 139.699219 L 228.75 135.101562 L 228.898438 129.199219 L 229.050781 129.550781 L 229.25 137.398438 L 229.398438 145.449219 L 229.601562 147.25 L 229.75 143.199219 L 229.949219 137.449219 L 230.101562 132.800781 L 230.25 126.101562 L 230.449219 115.050781 L 230.601562 104.351562 L 230.800781 100 L 230.949219 104.050781 L 231.101562 115.101562 L 231.300781 130.800781 L 231.449219 147.050781 L 231.648438 160.398438 L 231.800781 169.199219 L 231.949219 172.800781 L 232.148438 172.699219 L 232.300781 170.5 L 232.5 165.699219 L 232.648438 159.800781 L 232.800781 156 L 233 154.449219 L 233.148438 151.75 L 233.351562 147.101562 L 233.5 142.25 L 233.699219 136.949219 L 233.851562 129 L 234 117.5 L 234.199219 104.449219 L 234.351562 93.550781 L 234.5 87.949219 L 234.699219 89.699219 L 234.851562 95.851562 L 235.050781 100.851562 L 235.199219 103.800781 L 235.398438 106 L 235.550781 108.699219 L 235.699219 112.851562 L 235.898438 116.75 L 236.050781 118.398438 L 236.25 120.300781 L 236.398438 122.800781 L 236.601562 123.5 L 236.75 124.949219 L 236.898438 128.699219 L 237.101562 130.800781 L 237.25 130 L 237.398438 129.898438 L 237.601562 133.351562 L 237.75 136.851562 L 237.949219 136.699219 L 238.101562 134.398438 L 238.300781 134 L 238.449219 136.75 L 238.601562 139.898438 L 238.800781 141.601562 L 238.949219 144.648438 L 239.148438 152.5 L 239.300781 163.898438 L 239.5 174.699219 L 239.648438 181.648438 L 239.800781 184.449219 L 240 184.550781 L 240.148438 185 L 240.300781 187.75 L 240.5 190.949219 L 240.648438 192.101562 L 240.851562 191.699219 L 241 191.601562 L 241.199219 192.800781 L 241.351562 194.5 L 241.5 195.449219 L 241.699219 196 L 241.851562 196.648438 L 242.050781 197.851562 L 242.199219 199.75 L 242.351562 202.148438 L 242.550781 204.800781 L 242.699219 207.101562 L 242.898438 208.550781 L 243.050781 209.351562 L 243.199219 209.699219 L 243.398438 209.898438 L 243.550781 209.949219 L 243.75 210 L 256.699219 210 L 256.851562 209.949219 L 257.050781 209.851562 L 257.199219 209.699219 L 257.351562 209.300781 L 257.550781 208.5 L 257.699219 207.101562 L 257.898438 205.148438 L 258.050781 203.199219 L 258.199219 201.449219 L 258.398438 199.5 L 258.550781 197.25 L 258.75 194.199219 L 258.898438 188.351562 L 259.101562 178.449219 L 259.25 166.601562 L 259.398438 156.199219 L 259.601562 148.300781 L 259.75 143.25 L 259.898438 140.398438 L 260.101562 137.300781 L 260.25 133.800781 L 260.449219 130.699219 L 260.601562 126.351562 L 260.800781 119.75 L 260.949219 113 L 261.101562 107.148438 L 261.300781 101.550781 L 261.449219 95 L 261.648438 87.050781 L 261.800781 83.148438 L 262 87.550781 L 262.148438 95.601562 L 262.300781 98.949219 L 262.5 95.75 L 262.648438 91.851562 L 262.800781 93.351562 L 263 100.449219 L 263.148438 108.949219 L 263.351562 115.199219 L 263.5 120.101562 L 263.699219 124.800781 L 263.851562 127.148438 L 264 126.75 L 264.199219 126.949219 L 264.351562 127.199219 L 264.550781 124 L 264.699219 115.851562 L 264.851562 103.648438 L 265.050781 89.648438 L 265.199219 76.449219 L 265.398438 67.199219 L 265.550781 64 L 265.699219 63.851562 L 265.898438 58.050781 L 266.050781 42.949219 L 266.25 26.648438 L 266.398438 17.949219 L 266.601562 17.300781 L 266.75 20.101562 L 266.898438 19.300781 L 267.101562 14.300781 L 267.25 13.898438 L 267.449219 23.050781 L 267.601562 33.601562 L 267.75 35.898438 L 267.949219 33.101562 L 268.101562 35.601562 L 268.300781 46.601562 L 268.449219 59.851562 L 268.601562 71.050781 L 268.800781 75.648438 L 268.949219 70.351562 L 269.148438 63.398438 L 269.300781 67.75 L 269.449219 83.398438 L 269.648438 99.050781 L 269.800781 106.5 L 270 106.148438 L 270.148438 101.5 L 270.351562 93.648438 L 270.5 86.101562 L 270.648438 84.949219 L 270.851562 89.699219 L 271 94.351562 L 271.199219 94.75 L 271.351562 88.351562 L 271.5 76.449219 L 271.699219 66.199219 L 271.851562 65.648438 L 272.050781 76.949219 L 272.199219 94.851562 L 272.351562 111.351562 L 272.550781 121.898438 L 272.699219 126 L 272.898438 125.050781 L 273.050781 121.699219 L 273.25 119.398438 L 273.398438 121.601562 L 273.550781 129.300781 L 273.75 141.050781 L 273.898438 152.5 L 274.050781 158.148438 L 274.25 155.898438 L 274.398438 148.300781 L 274.601562 140.300781 L 274.75 137.449219 L 274.949219 142.148438 L 275.101562 151.5 L 275.25 160.800781 L 275.449219 164.199219 L 275.601562 159.75 L 275.800781 152.300781 L 275.949219 148.300781 L 276.148438 150.050781 L 276.300781 155.5 L 276.449219 160.449219 L 276.648438 162.601562 L 276.800781 162.199219 L 276.949219 162.300781 L 277.148438 164.300781 L 277.300781 166.75 L 277.5 168.800781 L 277.648438 170.050781 L 277.851562 169.199219 L 278 165.75 L 278.148438 161.300781 L 278.351562 158.5 L 278.5 158.949219 L 278.699219 161.398438 L 278.851562 163.898438 L 279 163.199219 L 279.199219 158 L 279.351562 152.550781 L 279.550781 151.800781 L 279.699219 156.75 L 279.851562 165.449219 L 280.050781 173.351562 L 280.199219 176.199219 L 280.398438 173.949219 L 280.550781 171.699219 L 280.699219 175.199219 L 280.898438 183 L 281.050781 189.148438 L 281.25 190 L 281.398438 185.148438 L 281.601562 177.5 L 281.75 173.550781 L 281.898438 175.5 L 282.101562 177.601562 L 282.25 174.199219 L 282.449219 164.648438 L 282.601562 154.898438 L 282.75 151.449219 L 282.949219 151.050781 L 283.101562 146.398438 L 283.300781 138.101562 L 283.449219 130.648438 L 283.601562 124.449219 L 283.800781 115.351562 L 283.949219 99.851562 L 284.148438 78.648438 L 284.300781 57.851562 L 284.5 48.050781 L 284.648438 53.601562 L 284.800781 67.550781 L 285 81.050781 L 285.148438 91.050781 L 285.351562 100 L 285.5 109.25 L 285.648438 116 L 285.851562 122.449219 L 286 133.300781 L 286.199219 145 L 286.351562 152.648438 L 286.5 155.699219 L 286.699219 155.550781 L 286.851562 154.648438 L 287.050781 154.699219 L 287.199219 156.300781 L 287.398438 158.898438 L 287.550781 161.5 L 287.699219 164.101562 L 287.898438 166.5 L 288.050781 167.898438 L 288.25 168.050781 L 288.398438 167.648438 L 288.550781 167.800781 L 288.75 167.601562 L 288.898438 165.25 L 289.101562 162.25 L 289.25 161.898438 L 289.398438 164 L 289.601562 164.398438 L 289.75 161.601562 L 289.949219 159.75 L 290.101562 162.25 L 290.25 166.449219 L 290.449219 167.898438 L 290.601562 165.699219 L 290.800781 161.101562 L 290.949219 156.601562 L 291.101562 155.101562 L 291.300781 158.398438 L 291.449219 164.699219 L 291.648438 169.25 L 291.800781 170.699219 L 291.949219 171.148438 L 292.148438 171.398438 L 292.300781 171.949219 L 292.5 172.550781 L 292.648438 172.699219 L 292.851562 173.398438 L 293 173 L 293.148438 168.398438 L 293.351562 160.300781 L 293.5 153.351562 L 293.699219 151.199219 L 293.851562 152.300781 L 294 153.398438 L 294.199219 154.800781 L 294.351562 158.101562 L 294.550781 161.5 L 294.699219 162 L 294.851562 160.148438 L 295.050781 160.101562 L 295.199219 161.601562 L 295.398438 160.699219 L 295.550781 156.5 L 295.75 151.101562 L 295.898438 146 L 296.050781 143.449219 L 296.25 143.5 L 296.398438 143.800781 L 296.601562 145.101562 L 296.75 146.800781 L 296.898438 147.300781 L 297.101562 147.851562 L 297.25 150.351562 L 297.449219 155.699219 L 297.601562 161.25 L 297.75 161.101562 L 297.949219 151.300781 L 298.101562 135.398438 L 298.300781 123.449219 L 298.449219 122.101562 L 298.648438 128.800781 L 298.800781 137 L 298.949219 142 L 299.148438 143.601562 L 299.300781 142.5 L 299.5 139.75 L 299.648438 135.851562 L 299.800781 131.199219 L 300 127.851562 L 300.148438 128.398438 L 300.351562 132.949219 L 300.5 138.898438 L 300.648438 142.5 L 300.851562 143.5 L 301 144.648438 L 301.199219 144.898438 L 301.351562 140.398438 L 301.5 132.550781 L 301.699219 128.699219 L 301.851562 133.148438 L 302.050781 140.5 L 302.199219 145.601562 L 302.398438 149.898438 L 302.550781 155.199219 L 302.699219 159.800781 L 302.898438 162 L 303.050781 160.398438 L 303.199219 153.601562 L 303.398438 143.949219 L 303.550781 137.398438 L 303.75 138.5 L 303.898438 145.101562 L 304.101562 152.75 L 304.25 159.949219 L 304.398438 166.300781 L 304.601562 170.300781 L 304.75 170.949219 L 304.949219 168.648438 L 305.101562 165.199219 L 305.300781 161.5 L 305.449219 155.949219 L 305.601562 150.300781 L 305.800781 149.5 L 305.949219 151.898438 L 306.101562 153.550781 L 306.300781 155.101562 L 306.449219 158.5 L 306.648438 164.101562 L 306.800781 167.5 L 307 162.851562 L 307.148438 149.75 L 307.300781 133.5 L 307.5 119.898438 L 307.648438 114.699219 L 307.851562 119.199219 L 308 126.101562 L 308.199219 126.800781 L 308.351562 121.449219 L 308.5 117.699219 L 308.699219 123.449219 L 308.851562 136.101562 L 309 147.050781 L 309.199219 152.398438 L 309.351562 151.75 L 309.550781 146.601562 L 309.699219 139.398438 L 309.898438 131.75 L 310.050781 126 L 310.199219 124.800781 L 310.398438 128.5 L 310.550781 135.648438 L 310.75 143.699219 L 310.898438 149.75 L 311.050781 152.398438 L 311.25 151.101562 L 311.398438 145.898438 L 311.601562 138.851562 L 311.75 135.351562 L 311.898438 137.5 L 312.101562 138.851562 L 312.25 132.851562 L 312.449219 121.601562 L 312.601562 111.75 L 312.75 108.351562 L 312.949219 111 L 313.101562 118.101562 L 313.300781 128.800781 L 313.449219 140.949219 L 313.648438 151.800781 L 313.800781 161 L 313.949219 168.199219 L 314.148438 171.398438 L 314.300781 168.5 L 314.5 159 L 314.648438 145.5 L 314.800781 133.5 L 315 127.648438 L 315.148438 128.699219 L 315.351562 137.148438 L 315.5 151.101562 L 315.648438 163.699219 L 315.851562 169.949219 L 316 170.699219 L 316.199219 170.398438 L 316.351562 171.300781 L 316.550781 170.949219 L 316.699219 167.75 L 316.851562 162.75 L 317.050781 157.300781 L 317.199219 155 L 317.351562 159.148438 L 317.550781 167 L 317.699219 173.601562 L 317.898438 178.25 L 318.050781 181.199219 L 318.25 180.5 L 318.398438 176.851562 L 318.550781 173.648438 L 318.75 173.550781 L 318.898438 176.5 L 319.101562 178.050781 L 319.25 174.601562 L 319.449219 170.351562 L 319.601562 171.699219 L 319.75 177 L 319.949219 181.101562 L 320.101562 183.851562 L 320.25 187.101562 L 320.449219 189.949219 L 320.601562 191.050781 L 320.800781 191.148438 L 320.949219 190.550781 L 321.148438 188.101562 L 321.300781 182.851562 L 321.449219 177.148438 L 321.648438 177.050781 L 321.800781 184.449219 L 322 192.949219 L 322.148438 197.898438 L 322.300781 200.050781 L 322.5 201.550781 L 322.648438 202.300781 L 322.851562 200.699219 L 323 196 L 323.148438 189.050781 L 323.351562 181.75 L 323.5 178.148438 L 323.699219 181.648438 L 323.851562 189.800781 L 324 197.148438 L 324.199219 200.898438 L 324.351562 200.949219 L 324.550781 198.75 L 324.699219 195.75 L 324.898438 192 L 325.050781 187.851562 L 325.199219 185.300781 L 325.398438 186.699219 L 325.550781 191.75 L 325.75 196.898438 L 325.898438 199.351562 L 326.050781 198.949219 L 326.25 197.351562 L 326.398438 195.351562 L 326.601562 193.199219 L 326.75 192.351562 L 326.898438 193.949219 L 327.101562 197 L 327.25 199.300781 L 327.449219 199.300781 L 327.601562 198 L 327.800781 197.25 L 327.949219 197.898438 L 328.101562 199.449219 L 328.300781 200.949219 L 328.449219 202.648438 L 328.601562 204.75 L 328.800781 206.898438 L 328.949219 208.398438 L 329.148438 209.25 L 329.300781 209.699219 L 329.5 209.851562 L 329.648438 209.949219 L 329.800781 210 L 340.050781 210 "/>
<path fill="none" stroke-width="10" stroke-linecap="butt" stroke-linejoin="miter" stroke="rgb(0%, 0%, 0%)" stroke-opacity="1" stroke-miterlimit="3.8" d="M 430 2419.492188 L 430 420 L 3419.492188 420 L 3419.492188 2419.492188 Z M 430 2419.492188 " transform="matrix(0.1, 0, 0, -0.1, 0, 252)"/>
</svg>
