<?xml version="1.0" encoding="UTF-8"?>
<svg xmlns="http://www.w3.org/2000/svg" xmlns:xlink="http://www.w3.org/1999/xlink" width="842" height="595" viewBox="0 0 842 595">
<defs>
<g>
<g id="glyph-0-0">
</g>
<g id="glyph-0-1">
<path d="M 8.703125 -4.265625 L 0.640625 -4.265625 L 0.640625 -3.15625 L 8.703125 -3.15625 Z M 8.703125 -4.265625 "/>
</g>
<g id="glyph-0-2">
<path d="M 8.09375 -1.390625 L 2.125 -1.390625 C 2.265625 -2.359375 2.78125 -2.953125 4.171875 -3.8125 L 5.78125 -4.703125 C 7.359375 -5.578125 8.171875 -6.765625 8.171875 -8.1875 C 8.171875 -9.15625 7.796875 -10.046875 7.125 -10.671875 C 6.453125 -11.28125 5.609375 -11.5625 4.546875 -11.5625 C 3.109375 -11.5625 2.03125 -11.0625 1.40625 -10.0625 C 1.015625 -9.453125 0.828125 -8.734375 0.796875 -7.5625 L 2.203125 -7.5625 C 2.25 -8.359375 2.359375 -8.8125 2.546875 -9.203125 C 2.90625 -9.90625 3.640625 -10.34375 4.5 -10.34375 C 5.78125 -10.34375 6.734375 -9.40625 6.734375 -8.15625 C 6.734375 -7.234375 6.203125 -6.4375 5.203125 -5.859375 L 3.734375 -4.984375 C 1.359375 -3.625 0.671875 -2.546875 0.546875 -0.015625 L 8.09375 -0.015625 Z M 8.09375 -1.390625 "/>
</g>
<g id="glyph-0-3">
<path d="M 4.140625 -8.234375 L 4.140625 0 L 5.546875 0 L 5.546875 -11.5625 L 4.625 -11.5625 C 4.125 -9.796875 3.8125 -9.546875 1.625 -9.265625 L 1.625 -8.234375 Z M 4.140625 -8.234375 "/>
</g>
<g id="glyph-0-4">
<path d="M 3.0625 -1.65625 L 1.390625 -1.65625 L 1.390625 0 L 3.0625 0 Z M 3.0625 -1.65625 "/>
</g>
<g id="glyph-0-5">
<path d="M 8.3125 -11.34375 L 0.734375 -11.34375 L 0.734375 -9.953125 L 6.859375 -9.953125 C 4.15625 -6.09375 3.0625 -3.734375 2.203125 0 L 3.71875 0 C 4.34375 -3.625 5.765625 -6.75 8.3125 -10.15625 Z M 8.3125 -11.34375 "/>
</g>
<g id="glyph-0-6">
<path d="M 3.53125 -5.328125 L 4.296875 -5.328125 C 5.84375 -5.328125 6.65625 -4.609375 6.65625 -3.21875 C 6.65625 -1.765625 5.78125 -0.875 4.3125 -0.875 C 2.765625 -0.875 2.015625 -1.65625 1.921875 -3.359375 L 0.515625 -3.359375 C 0.578125 -2.4375 0.734375 -1.828125 1.015625 -1.3125 C 1.59375 -0.1875 2.703125 0.375 4.25 0.375 C 6.59375 0.375 8.09375 -1.046875 8.09375 -3.234375 C 8.09375 -4.703125 7.53125 -5.5 6.171875 -5.984375 C 7.234375 -6.421875 7.765625 -7.21875 7.765625 -8.390625 C 7.765625 -10.375 6.46875 -11.5625 4.296875 -11.5625 C 2.015625 -11.5625 0.796875 -10.28125 0.75 -7.84375 L 2.15625 -7.84375 C 2.171875 -8.546875 2.234375 -8.9375 2.421875 -9.296875 C 2.734375 -9.953125 3.4375 -10.34375 4.3125 -10.34375 C 5.5625 -10.34375 6.3125 -9.578125 6.3125 -8.34375 C 6.3125 -7.515625 6.03125 -7.03125 5.40625 -6.75 C 5.03125 -6.59375 4.515625 -6.53125 3.53125 -6.515625 Z M 3.53125 -5.328125 "/>
</g>
<g id="glyph-0-7">
<path d="M 4.40625 -11.5625 C 3.34375 -11.5625 2.390625 -11.09375 1.796875 -10.296875 C 1.0625 -9.28125 0.6875 -7.75 0.6875 -5.59375 C 0.6875 -1.703125 1.96875 0.375 4.40625 0.375 C 6.796875 0.375 8.109375 -1.703125 8.109375 -5.5 C 8.109375 -7.75 7.765625 -9.25 7.015625 -10.296875 C 6.421875 -11.109375 5.46875 -11.5625 4.40625 -11.5625 Z M 4.40625 -10.3125 C 5.921875 -10.3125 6.671875 -8.765625 6.671875 -5.625 C 6.671875 -2.34375 5.9375 -0.796875 4.375 -0.796875 C 2.875 -0.796875 2.125 -2.40625 2.125 -5.578125 C 2.125 -8.765625 2.875 -10.3125 4.40625 -10.3125 Z M 4.40625 -10.3125 "/>
</g>
<g id="glyph-0-8">
<path d="M 7.96875 -8.5625 C 7.703125 -10.453125 6.484375 -11.5625 4.75 -11.5625 C 3.5 -11.5625 2.390625 -10.953125 1.71875 -9.921875 C 0.984375 -8.78125 0.6875 -7.375 0.6875 -5.28125 C 0.6875 -3.328125 0.953125 -2.09375 1.640625 -1.078125 C 2.25 -0.125 3.25 0.375 4.5 0.375 C 6.65625 0.375 8.203125 -1.25 8.203125 -3.5 C 8.203125 -5.625 6.765625 -7.140625 4.734375 -7.140625 C 3.609375 -7.140625 2.734375 -6.71875 2.125 -5.875 C 2.140625 -8.734375 3.046875 -10.3125 4.65625 -10.3125 C 5.640625 -10.3125 6.34375 -9.6875 6.5625 -8.5625 Z M 4.5625 -5.890625 C 5.921875 -5.890625 6.765625 -4.921875 6.765625 -3.390625 C 6.765625 -1.9375 5.8125 -0.875 4.515625 -0.875 C 3.203125 -0.875 2.203125 -1.984375 2.203125 -3.453125 C 2.203125 -4.890625 3.171875 -5.890625 4.5625 -5.890625 Z M 4.5625 -5.890625 "/>
</g>
<g id="glyph-0-9">
<path d="M 0.84375 -2.640625 C 1.125 -0.75 2.34375 0.375 4.0625 0.375 C 5.328125 0.375 6.453125 -0.234375 7.125 -1.28125 C 7.828125 -2.421875 8.140625 -3.828125 8.140625 -5.921875 C 8.140625 -7.875 7.859375 -9.109375 7.1875 -10.125 C 6.5625 -11.078125 5.5625 -11.5625 4.3125 -11.5625 C 2.15625 -11.5625 0.609375 -9.953125 0.609375 -7.71875 C 0.609375 -5.578125 2.046875 -4.078125 4.09375 -4.078125 C 5.171875 -4.078125 5.96875 -4.46875 6.6875 -5.34375 C 6.671875 -2.46875 5.78125 -0.875 4.15625 -0.875 C 3.171875 -0.875 2.484375 -1.515625 2.25 -2.640625 Z M 4.296875 -10.34375 C 5.609375 -10.34375 6.609375 -9.234375 6.609375 -7.75 C 6.609375 -6.3125 5.640625 -5.328125 4.25 -5.328125 C 2.890625 -5.328125 2.046875 -6.28125 2.046875 -7.828125 C 2.046875 -9.28125 2.984375 -10.34375 4.296875 -10.34375 Z M 4.296875 -10.34375 "/>
</g>
<g id="glyph-0-10">
<path d="M 5.234375 -2.796875 L 5.234375 0 L 6.640625 0 L 6.640625 -2.796875 L 8.3125 -2.796875 L 8.3125 -4.0625 L 6.640625 -4.0625 L 6.640625 -11.5625 L 5.59375 -11.5625 L 0.453125 -4.28125 L 0.453125 -2.796875 Z M 5.234375 -4.0625 L 1.6875 -4.0625 L 5.234375 -9.171875 Z M 5.234375 -4.0625 "/>
</g>
<g id="glyph-0-11">
<path d="M 7.609375 -11.34375 L 1.765625 -11.34375 L 0.90625 -5.171875 L 2.203125 -5.171875 C 2.859375 -5.953125 3.40625 -6.21875 4.296875 -6.21875 C 5.828125 -6.21875 6.765625 -5.1875 6.765625 -3.5 C 6.765625 -1.875 5.828125 -0.875 4.28125 -0.875 C 3.0625 -0.875 2.296875 -1.5 1.96875 -2.78125 L 0.5625 -2.78125 C 0.75 -1.859375 0.90625 -1.40625 1.25 -0.984375 C 1.890625 -0.125 3.046875 0.375 4.3125 0.375 C 6.609375 0.375 8.203125 -1.296875 8.203125 -3.703125 C 8.203125 -5.9375 6.71875 -7.46875 4.546875 -7.46875 C 3.75 -7.46875 3.109375 -7.265625 2.453125 -6.78125 L 2.890625 -9.953125 L 7.609375 -9.953125 Z M 7.609375 -11.34375 "/>
</g>
<g id="glyph-0-12">
<path d="M 6.25 -6.09375 C 7.4375 -6.8125 7.8125 -7.390625 7.8125 -8.484375 C 7.8125 -10.296875 6.421875 -11.5625 4.40625 -11.5625 C 2.40625 -11.5625 0.984375 -10.296875 0.984375 -8.5 C 0.984375 -7.390625 1.359375 -6.828125 2.53125 -6.09375 C 1.234375 -5.4375 0.59375 -4.5 0.59375 -3.21875 C 0.59375 -1.109375 2.140625 0.375 4.40625 0.375 C 6.640625 0.375 8.203125 -1.109375 8.203125 -3.21875 C 8.203125 -4.5 7.5625 -5.4375 6.25 -6.09375 Z M 4.40625 -10.3125 C 5.59375 -10.3125 6.375 -9.59375 6.375 -8.453125 C 6.375 -7.359375 5.578125 -6.640625 4.40625 -6.640625 C 3.203125 -6.640625 2.4375 -7.359375 2.4375 -8.484375 C 2.4375 -9.59375 3.203125 -10.3125 4.40625 -10.3125 Z M 4.40625 -5.453125 C 5.8125 -5.453125 6.765625 -4.53125 6.765625 -3.1875 C 6.765625 -1.796875 5.828125 -0.875 4.375 -0.875 C 2.984375 -0.875 2.03125 -1.828125 2.03125 -3.171875 C 2.03125 -4.546875 2.96875 -5.453125 4.40625 -5.453125 Z M 4.40625 -5.453125 "/>
</g>
<g id="glyph-0-13">
<path d="M 2.921875 -5.3125 L 9.28125 -5.3125 L 9.28125 -6.625 L 2.921875 -6.625 L 2.921875 -10.359375 L 9.515625 -10.359375 L 9.515625 -11.65625 L 1.4375 -11.65625 L 1.4375 0 L 9.8125 0 L 9.8125 -1.3125 L 2.921875 -1.3125 Z M 2.921875 -5.3125 "/>
</g>
<g id="glyph-0-14">
</g>
<g id="glyph-0-15">
<path d="M 3.78125 -11.65625 C 2.171875 -9.5625 1.171875 -6.65625 1.171875 -4.140625 C 1.171875 -1.609375 2.171875 1.296875 3.78125 3.390625 L 4.65625 3.390625 C 3.25 1.109375 2.46875 -1.578125 2.46875 -4.140625 C 2.46875 -6.6875 3.25 -9.390625 4.65625 -11.65625 Z M 3.78125 -11.65625 "/>
</g>
<g id="glyph-0-16">
<path d="M 8.203125 -3.75 C 8.203125 -5.03125 8.109375 -5.796875 7.875 -6.421875 C 7.328125 -7.796875 6.046875 -8.625 4.484375 -8.625 C 2.140625 -8.625 0.640625 -6.84375 0.640625 -4.078125 C 0.640625 -1.3125 2.078125 0.375 4.453125 0.375 C 6.375 0.375 7.703125 -0.71875 8.03125 -2.546875 L 6.6875 -2.546875 C 6.3125 -1.4375 5.5625 -0.859375 4.5 -0.859375 C 3.640625 -0.859375 2.921875 -1.25 2.484375 -1.953125 C 2.15625 -2.4375 2.046875 -2.90625 2.03125 -3.75 Z M 2.0625 -4.828125 C 2.171875 -6.390625 3.125 -7.390625 4.46875 -7.390625 C 5.828125 -7.390625 6.765625 -6.34375 6.765625 -4.828125 Z M 2.0625 -4.828125 "/>
</g>
<g id="glyph-0-17">
<path d="M 6.265625 0 L 10.3125 -11.65625 L 8.734375 -11.65625 L 5.5 -1.796875 L 2.078125 -11.65625 L 0.484375 -11.65625 L 4.671875 0 Z M 6.265625 0 "/>
</g>
<g id="glyph-0-18">
<path d="M 1.484375 3.390625 C 3.09375 1.296875 4.09375 -1.609375 4.09375 -4.125 C 4.09375 -6.65625 3.09375 -9.5625 1.484375 -11.65625 L 0.609375 -11.65625 C 2.015625 -9.375 2.796875 -6.6875 2.796875 -4.125 C 2.796875 -1.578125 2.015625 1.125 0.609375 3.390625 Z M 1.484375 3.390625 "/>
</g>
<g id="glyph-0-19">
<path d="M 2.25 -11.65625 L 0.921875 -11.65625 L 0.921875 0 L 2.25 0 L 2.25 -3.265625 L 3.546875 -4.546875 L 6.390625 0 L 8.03125 0 L 4.609375 -5.484375 L 7.515625 -8.390625 L 5.8125 -8.390625 L 2.25 -4.828125 Z M 2.25 -11.65625 "/>
</g>
<g id="glyph-0-20">
<path d="M 0.859375 3.484375 L 2.203125 3.484375 L 2.203125 -0.875 C 2.90625 -0.015625 3.703125 0.375 4.78125 0.375 C 6.953125 0.375 8.375 -1.375 8.375 -4.046875 C 8.375 -6.859375 6.984375 -8.625 4.765625 -8.625 C 3.625 -8.625 2.71875 -8.109375 2.09375 -7.125 L 2.09375 -8.390625 L 0.859375 -8.390625 Z M 4.546875 -7.375 C 6.015625 -7.375 6.96875 -6.078125 6.96875 -4.078125 C 6.96875 -2.171875 6 -0.875 4.546875 -0.875 C 3.125 -0.875 2.203125 -2.15625 2.203125 -4.125 C 2.203125 -6.09375 3.125 -7.375 4.546875 -7.375 Z M 4.546875 -7.375 "/>
</g>
<g id="glyph-0-21">
<path d="M 4.359375 -8.625 C 1.984375 -8.625 0.578125 -6.9375 0.578125 -4.125 C 0.578125 -1.296875 1.984375 0.375 4.375 0.375 C 6.734375 0.375 8.15625 -1.3125 8.15625 -4.0625 C 8.15625 -6.96875 6.78125 -8.625 4.359375 -8.625 Z M 4.375 -7.390625 C 5.875 -7.390625 6.765625 -6.15625 6.765625 -4.078125 C 6.765625 -2.09375 5.84375 -0.859375 4.375 -0.859375 C 2.875 -0.859375 1.96875 -2.09375 1.96875 -4.125 C 1.96875 -6.15625 2.875 -7.390625 4.375 -7.390625 Z M 4.375 -7.390625 "/>
</g>
<g id="glyph-0-22">
<path d="M 2.40625 -8.390625 L 1.078125 -8.390625 L 1.078125 0 L 2.40625 0 Z M 2.40625 -11.65625 L 1.0625 -11.65625 L 1.0625 -9.984375 L 2.40625 -9.984375 Z M 2.40625 -11.65625 "/>
</g>
<g id="glyph-0-23">
<path d="M 1.125 -8.390625 L 1.125 0 L 2.46875 0 L 2.46875 -4.625 C 2.46875 -6.34375 3.359375 -7.453125 4.734375 -7.453125 C 5.796875 -7.453125 6.46875 -6.8125 6.46875 -5.8125 L 6.46875 0 L 7.796875 0 L 7.796875 -6.34375 C 7.796875 -7.734375 6.75 -8.625 5.140625 -8.625 C 3.890625 -8.625 3.09375 -8.140625 2.359375 -6.96875 L 2.359375 -8.390625 Z M 1.125 -8.390625 "/>
</g>
<g id="glyph-0-24">
<path d="M 4.0625 -8.390625 L 2.6875 -8.390625 L 2.6875 -10.6875 L 1.359375 -10.6875 L 1.359375 -8.390625 L 0.21875 -8.390625 L 0.21875 -7.296875 L 1.359375 -7.296875 L 1.359375 -0.953125 C 1.359375 -0.09375 1.9375 0.375 2.96875 0.375 C 3.328125 0.375 3.609375 0.34375 4.0625 0.25 L 4.0625 -0.859375 C 3.875 -0.8125 3.703125 -0.796875 3.421875 -0.796875 C 2.84375 -0.796875 2.6875 -0.953125 2.6875 -1.546875 L 2.6875 -7.296875 L 4.0625 -7.296875 Z M 4.0625 -8.390625 "/>
</g>
<g id="glyph-0-25">
<path d="M 6.46875 -8.390625 L 6.46875 -7.171875 C 5.796875 -8.171875 5.0625 -8.625 4 -8.625 C 1.96875 -8.625 0.5625 -6.734375 0.5625 -4.046875 C 0.5625 -2.640625 0.890625 -1.609375 1.609375 -0.765625 C 2.234375 -0.03125 3.046875 0.375 3.90625 0.375 C 4.90625 0.375 5.625 -0.078125 6.34375 -1.140625 L 6.34375 -0.703125 C 6.34375 1.53125 5.71875 2.375 4.046875 2.375 C 2.90625 2.375 2.3125 1.921875 2.1875 0.953125 L 0.828125 0.953125 C 0.953125 2.515625 2.1875 3.484375 4.015625 3.484375 C 5.25 3.484375 6.265625 3.09375 6.8125 2.421875 C 7.453125 1.625 7.703125 0.59375 7.703125 -1.375 L 7.703125 -8.390625 Z M 4.125 -7.390625 C 5.53125 -7.390625 6.34375 -6.203125 6.34375 -4.078125 C 6.34375 -2.046875 5.515625 -0.859375 4.125 -0.859375 C 2.75 -0.859375 1.953125 -2.0625 1.953125 -4.125 C 1.953125 -6.171875 2.75 -7.390625 4.125 -7.390625 Z M 4.125 -7.390625 "/>
</g>
<g id="glyph-0-26">
<path d="M 1.109375 -8.390625 L 1.109375 0 L 2.453125 0 L 2.453125 -4.359375 C 2.46875 -6.375 3.296875 -7.265625 5.140625 -7.21875 L 5.140625 -8.578125 C 4.90625 -8.609375 4.78125 -8.625 4.625 -8.625 C 3.765625 -8.625 3.109375 -8.109375 2.34375 -6.859375 L 2.34375 -8.390625 Z M 1.109375 -8.390625 "/>
</g>
<g id="glyph-0-27">
<path d="M 7.921875 -11.65625 L 6.59375 -11.65625 L 6.59375 -7.328125 C 6.03125 -8.171875 5.140625 -8.625 4.015625 -8.625 C 1.84375 -8.625 0.421875 -6.875 0.421875 -4.203125 C 0.421875 -1.375 1.796875 0.375 4.0625 0.375 C 5.21875 0.375 6.015625 -0.0625 6.734375 -1.109375 L 6.734375 0 L 7.921875 0 Z M 4.234375 -7.375 C 5.6875 -7.375 6.59375 -6.109375 6.59375 -4.09375 C 6.59375 -2.15625 5.65625 -0.875 4.25 -0.875 C 2.78125 -0.875 1.8125 -2.171875 1.8125 -4.125 C 1.8125 -6.078125 2.78125 -7.375 4.234375 -7.375 Z M 4.234375 -7.375 "/>
</g>
<g id="glyph-0-28">
<path d="M 3.421875 -1.65625 L 1.765625 -1.65625 L 1.765625 0 L 3.421875 0 Z M 3.421875 -8.390625 L 1.765625 -8.390625 L 1.765625 -6.71875 L 3.421875 -6.71875 Z M 3.421875 -8.390625 "/>
</g>
<g id="glyph-0-29">
<path d="M 11.34375 -6.15625 L 6.484375 -6.15625 L 6.484375 -4.84375 L 10.03125 -4.84375 L 10.03125 -4.53125 C 10.03125 -2.453125 8.5 -0.9375 6.375 -0.9375 C 5.1875 -0.9375 4.109375 -1.375 3.421875 -2.125 C 2.65625 -2.953125 2.1875 -4.359375 2.1875 -5.796875 C 2.1875 -8.65625 3.828125 -10.546875 6.28125 -10.546875 C 8.0625 -10.546875 9.34375 -9.625 9.65625 -8.125 L 11.1875 -8.125 C 10.765625 -10.5 8.96875 -11.859375 6.296875 -11.859375 C 4.875 -11.859375 3.734375 -11.484375 2.8125 -10.734375 C 1.453125 -9.609375 0.703125 -7.8125 0.703125 -5.71875 C 0.703125 -2.125 2.890625 0.375 6.046875 0.375 C 7.625 0.375 8.875 -0.21875 10.03125 -1.484375 L 10.40625 0.0625 L 11.34375 0.0625 Z M 11.34375 -6.15625 "/>
</g>
<g id="glyph-0-30">
<path d="M 4.671875 -4.34375 L 7.484375 -8.390625 L 5.984375 -8.390625 L 3.96875 -5.34375 L 1.953125 -8.390625 L 0.4375 -8.390625 L 3.234375 -4.265625 L 0.265625 0 L 1.796875 0 L 3.921875 -3.21875 L 6.015625 0 L 7.5625 0 Z M 4.671875 -4.34375 "/>
</g>
<g id="glyph-1-0">
</g>
<g id="glyph-1-1">
<path d="M -5.3125 -2.921875 L -5.3125 -9.28125 L -6.625 -9.28125 L -6.625 -2.921875 L -10.359375 -2.921875 L -10.359375 -9.515625 L -11.65625 -9.515625 L -11.65625 -1.4375 L 0 -1.4375 L 0 -9.8125 L -1.3125 -9.8125 L -1.3125 -2.921875 Z M -5.3125 -2.921875 "/>
</g>
<g id="glyph-1-2">
</g>
<g id="glyph-1-3">
<path d="M -11.65625 -3.78125 C -9.5625 -2.171875 -6.65625 -1.171875 -4.140625 -1.171875 C -1.609375 -1.171875 1.296875 -2.171875 3.390625 -3.78125 L 3.390625 -4.65625 C 1.109375 -3.25 -1.578125 -2.46875 -4.140625 -2.46875 C -6.6875 -2.46875 -9.390625 -3.25 -11.65625 -4.65625 Z M -11.65625 -3.78125 "/>
</g>
<g id="glyph-1-4">
<path d="M -3.75 -8.203125 C -5.03125 -8.203125 -5.796875 -8.109375 -6.421875 -7.875 C -7.796875 -7.328125 -8.625 -6.046875 -8.625 -4.484375 C -8.625 -2.140625 -6.84375 -0.640625 -4.078125 -0.640625 C -1.3125 -0.640625 0.375 -2.078125 0.375 -4.453125 C 0.375 -6.375 -0.71875 -7.703125 -2.546875 -8.03125 L -2.546875 -6.6875 C -1.4375 -6.3125 -0.859375 -5.5625 -0.859375 -4.5 C -0.859375 -3.640625 -1.25 -2.921875 -1.953125 -2.484375 C -2.4375 -2.15625 -2.90625 -2.046875 -3.75 -2.03125 Z M -4.828125 -2.0625 C -6.390625 -2.171875 -7.390625 -3.125 -7.390625 -4.46875 C -7.390625 -5.828125 -6.34375 -6.765625 -4.828125 -6.765625 Z M -4.828125 -2.0625 "/>
</g>
<g id="glyph-1-5">
<path d="M 0 -6.265625 L -11.65625 -10.3125 L -11.65625 -8.734375 L -1.796875 -5.5 L -11.65625 -2.078125 L -11.65625 -0.484375 L 0 -4.671875 Z M 0 -6.265625 "/>
</g>
<g id="glyph-1-6">
<path d="M -11.65625 -3.65625 L 0.3125 0.125 L 0.3125 -0.75 L -11.65625 -4.546875 Z M -11.65625 -3.65625 "/>
</g>
<g id="glyph-1-7">
<path d="M -5.5625 -7.53125 C -6.390625 -7.46875 -6.90625 -7.296875 -7.375 -6.96875 C -8.15625 -6.40625 -8.625 -5.390625 -8.625 -4.21875 C -8.625 -1.953125 -6.828125 -0.5 -4.046875 -0.5 C -1.34375 -0.5 0.375 -1.9375 0.375 -4.203125 C 0.375 -6.203125 -0.828125 -7.46875 -2.875 -7.625 L -2.875 -6.28125 C -1.53125 -6.0625 -0.859375 -5.375 -0.859375 -4.234375 C -0.859375 -2.765625 -2.0625 -1.890625 -4.046875 -1.890625 C -6.140625 -1.890625 -7.390625 -2.75 -7.390625 -4.203125 C -7.390625 -5.328125 -6.734375 -6.03125 -5.5625 -6.1875 Z M -5.5625 -7.53125 "/>
</g>
<g id="glyph-1-8">
<path d="M -11.65625 -2.4375 L -11.65625 -1.09375 L 0 -1.09375 L 0 -2.4375 Z M -11.65625 -2.4375 "/>
</g>
<g id="glyph-1-9">
<path d="M 3.390625 -1.484375 C 1.296875 -3.09375 -1.609375 -4.09375 -4.125 -4.09375 C -6.65625 -4.09375 -9.5625 -3.09375 -11.65625 -1.484375 L -11.65625 -0.609375 C -9.375 -2.015625 -6.6875 -2.796875 -4.125 -2.796875 C -1.578125 -2.796875 1.125 -2.015625 3.390625 -0.609375 Z M 3.390625 -1.484375 "/>
</g>
<g id="glyph-2-0">
</g>
<g id="glyph-2-1">
<path d="M -6.703125 -3.25 L -6.703125 -2.15625 L -8.546875 -2.15625 L -8.546875 -1.09375 L -6.703125 -1.09375 L -6.703125 -0.171875 L -5.828125 -0.171875 L -5.828125 -1.09375 L -0.765625 -1.09375 C -0.078125 -1.09375 0.296875 -1.546875 0.296875 -2.375 C 0.296875 -2.65625 0.265625 -2.890625 0.203125 -3.25 L -0.6875 -3.25 C -0.65625 -3.09375 -0.640625 -2.953125 -0.640625 -2.734375 C -0.640625 -2.28125 -0.765625 -2.15625 -1.234375 -2.15625 L -5.828125 -2.15625 L -5.828125 -3.25 Z M -6.703125 -3.25 "/>
</g>
<g id="glyph-2-2">
<path d="M -6.890625 -3.484375 C -6.890625 -1.59375 -5.546875 -0.453125 -3.296875 -0.453125 C -1.03125 -0.453125 0.296875 -1.59375 0.296875 -3.5 C 0.296875 -5.390625 -1.046875 -6.53125 -3.25 -6.53125 C -5.578125 -6.53125 -6.890625 -5.421875 -6.890625 -3.484375 Z M -5.90625 -3.5 C -5.90625 -4.703125 -4.921875 -5.40625 -3.265625 -5.40625 C -1.671875 -5.40625 -0.6875 -4.671875 -0.6875 -3.5 C -0.6875 -2.296875 -1.671875 -1.578125 -3.296875 -1.578125 C -4.921875 -1.578125 -5.90625 -2.296875 -5.90625 -3.5 Z M -5.90625 -3.5 "/>
</g>
<g id="glyph-2-3">
<path d="M -0.625 -6.84375 C -0.59375 -6.734375 -0.59375 -6.6875 -0.59375 -6.609375 C -0.59375 -6.25 -0.796875 -6.046875 -1.125 -6.046875 L -5.0625 -6.046875 C -6.25 -6.046875 -6.890625 -5.171875 -6.890625 -3.515625 C -6.890625 -2.53125 -6.609375 -1.75 -6.109375 -1.296875 C -5.765625 -0.984375 -5.390625 -0.859375 -4.71875 -0.828125 L -4.71875 -1.90625 C -5.546875 -2 -5.90625 -2.484375 -5.90625 -3.484375 C -5.90625 -4.453125 -5.546875 -4.984375 -4.90625 -4.984375 L -4.625 -4.984375 C -4.171875 -4.96875 -4 -4.734375 -3.890625 -3.859375 C -3.703125 -2.359375 -3.640625 -2.125 -3.484375 -1.71875 C -3.140625 -0.9375 -2.5625 -0.53125 -1.6875 -0.53125 C -0.46875 -0.53125 0.296875 -1.375 0.296875 -2.734375 C 0.296875 -3.578125 0 -4.265625 -0.6875 -5.015625 C 0 -5.09375 0.296875 -5.421875 0.296875 -6.109375 C 0.296875 -6.34375 0.265625 -6.484375 0.171875 -6.84375 Z M -2.109375 -4.984375 C -1.75 -4.984375 -1.53125 -4.875 -1.234375 -4.5625 C -0.84375 -4.125 -0.640625 -3.59375 -0.640625 -2.96875 C -0.640625 -2.140625 -1.03125 -1.65625 -1.71875 -1.65625 C -2.421875 -1.65625 -2.78125 -2.109375 -2.9375 -3.265625 C -3.09375 -4.40625 -3.140625 -4.625 -3.3125 -4.984375 Z M -2.109375 -4.984375 "/>
</g>
<g id="glyph-2-4">
<path d="M -9.328125 -1.9375 L -9.328125 -0.875 L 0 -0.875 L 0 -1.9375 Z M -9.328125 -1.9375 "/>
</g>
<g id="glyph-3-0">
</g>
<g id="glyph-3-1">
<path d="M 6.03125 -4.453125 C 5.96875 -5.109375 5.828125 -5.53125 5.578125 -5.90625 C 5.125 -6.53125 4.3125 -6.890625 3.375 -6.890625 C 1.5625 -6.890625 0.390625 -5.46875 0.390625 -3.234375 C 0.390625 -1.078125 1.546875 0.296875 3.359375 0.296875 C 4.96875 0.296875 5.96875 -0.671875 6.109375 -2.296875 L 5.03125 -2.296875 C 4.84375 -1.234375 4.296875 -0.6875 3.390625 -0.6875 C 2.21875 -0.6875 1.515625 -1.65625 1.515625 -3.234375 C 1.515625 -4.90625 2.203125 -5.90625 3.359375 -5.90625 C 4.265625 -5.90625 4.828125 -5.390625 4.953125 -4.453125 Z M 6.03125 -4.453125 "/>
</g>
<g id="glyph-3-2">
<path d="M 6.171875 0 L 6.171875 -6.703125 L 5.109375 -6.703125 L 5.109375 -2.90625 C 5.109375 -1.53125 4.390625 -0.640625 3.28125 -0.640625 C 2.4375 -0.640625 1.890625 -1.15625 1.890625 -1.953125 L 1.890625 -6.703125 L 0.828125 -6.703125 L 0.828125 -1.53125 C 0.828125 -0.421875 1.65625 0.296875 2.96875 0.296875 C 3.953125 0.296875 4.578125 -0.046875 5.203125 -0.9375 L 5.203125 0 Z M 6.171875 0 "/>
</g>
<g id="glyph-3-3">
<path d="M 3.25 -6.703125 L 2.15625 -6.703125 L 2.15625 -8.546875 L 1.09375 -8.546875 L 1.09375 -6.703125 L 0.171875 -6.703125 L 0.171875 -5.828125 L 1.09375 -5.828125 L 1.09375 -0.765625 C 1.09375 -0.078125 1.546875 0.296875 2.375 0.296875 C 2.65625 0.296875 2.890625 0.265625 3.25 0.203125 L 3.25 -0.6875 C 3.09375 -0.65625 2.953125 -0.640625 2.734375 -0.640625 C 2.28125 -0.640625 2.15625 -0.765625 2.15625 -1.234375 L 2.15625 -5.828125 L 3.25 -5.828125 Z M 3.25 -6.703125 "/>
</g>
<g id="glyph-3-4">
<path d="M 3.484375 -6.890625 C 1.59375 -6.890625 0.453125 -5.546875 0.453125 -3.296875 C 0.453125 -1.03125 1.59375 0.296875 3.5 0.296875 C 5.390625 0.296875 6.53125 -1.046875 6.53125 -3.25 C 6.53125 -5.578125 5.421875 -6.890625 3.484375 -6.890625 Z M 3.5 -5.90625 C 4.703125 -5.90625 5.40625 -4.921875 5.40625 -3.265625 C 5.40625 -1.671875 4.671875 -0.6875 3.5 -0.6875 C 2.296875 -0.6875 1.578125 -1.671875 1.578125 -3.296875 C 1.578125 -4.921875 2.296875 -5.90625 3.5 -5.90625 Z M 3.5 -5.90625 "/>
</g>
<g id="glyph-3-5">
<path d="M 3.296875 -6.703125 L 2.1875 -6.703125 L 2.1875 -7.75 C 2.1875 -8.203125 2.4375 -8.4375 2.9375 -8.4375 C 3.015625 -8.4375 3.0625 -8.4375 3.296875 -8.421875 L 3.296875 -9.296875 C 3.0625 -9.359375 2.921875 -9.375 2.703125 -9.375 C 1.71875 -9.375 1.125 -8.796875 1.125 -7.84375 L 1.125 -6.703125 L 0.234375 -6.703125 L 0.234375 -5.828125 L 1.125 -5.828125 L 1.125 0 L 2.1875 0 L 2.1875 -5.828125 L 3.296875 -5.828125 Z M 3.296875 -6.703125 "/>
</g>
</g>
</defs>
<path fill="none" stroke-width="5" stroke-linecap="butt" stroke-linejoin="miter" stroke="rgb(0%, 0%, 0%)" stroke-opacity="1" stroke-miterlimit="3.8" d="M 4868.007812 1476.015625 L 4868.007812 1538.984375 M 4868.007812 5971.015625 L 4868.007812 5908.007812 " transform="matrix(0, 0.1, 0.1, 0, 0, 0)"/>
<g fill="rgb(0%, 0%, 0%)" fill-opacity="1">
<use xlink:href="#glyph-0-1" x="88.6258" y="492.13"/>
<use xlink:href="#glyph-0-2" x="97.9698" y="492.13"/>
<use xlink:href="#glyph-0-3" x="106.8658" y="492.13"/>
<use xlink:href="#glyph-0-4" x="115.7618" y="492.13"/>
<use xlink:href="#glyph-0-5" x="120.2098" y="492.13"/>
<use xlink:href="#glyph-0-6" x="129.1058" y="492.13"/>
</g>
<path fill="none" stroke-width="5" stroke-linecap="butt" stroke-linejoin="miter" stroke="rgb(0%, 0%, 0%)" stroke-opacity="1" stroke-miterlimit="3.8" d="M 4341.992188 1476.015625 L 4341.992188 1538.984375 M 4341.992188 5971.015625 L 4341.992188 5908.007812 " transform="matrix(0, 0.1, 0.1, 0, 0, 0)"/>
<g fill="rgb(0%, 0%, 0%)" fill-opacity="1">
<use xlink:href="#glyph-0-1" x="88.6258" y="439.53"/>
<use xlink:href="#glyph-0-2" x="97.9698" y="439.53"/>
<use xlink:href="#glyph-0-3" x="106.8658" y="439.53"/>
<use xlink:href="#glyph-0-4" x="115.7618" y="439.53"/>
<use xlink:href="#glyph-0-5" x="120.2098" y="439.53"/>
<use xlink:href="#glyph-0-2" x="129.1058" y="439.53"/>
</g>
<path fill="none" stroke-width="5" stroke-linecap="butt" stroke-linejoin="miter" stroke="rgb(0%, 0%, 0%)" stroke-opacity="1" stroke-miterlimit="3.8" d="M 3816.015625 1476.015625 L 3816.015625 1538.984375 M 3816.015625 5971.015625 L 3816.015625 5908.007812 " transform="matrix(0, 0.1, 0.1, 0, 0, 0)"/>
<g fill="rgb(0%, 0%, 0%)" fill-opacity="1">
<use xlink:href="#glyph-0-1" x="88.6258" y="386.93"/>
<use xlink:href="#glyph-0-2" x="97.9698" y="386.93"/>
<use xlink:href="#glyph-0-3" x="106.8658" y="386.93"/>
<use xlink:href="#glyph-0-4" x="115.7618" y="386.93"/>
<use xlink:href="#glyph-0-5" x="120.2098" y="386.93"/>
<use xlink:href="#glyph-0-2" x="129.1058" y="386.93"/>
</g>
<path fill="none" stroke-width="5" stroke-linecap="butt" stroke-linejoin="miter" stroke="rgb(0%, 0%, 0%)" stroke-opacity="1" stroke-miterlimit="3.8" d="M 3290 1476.015625 L 3290 1538.984375 M 3290 5971.015625 L 3290 5908.007812 " transform="matrix(0, 0.1, 0.1, 0, 0, 0)"/>
<g fill="rgb(0%, 0%, 0%)" fill-opacity="1">
<use xlink:href="#glyph-0-1" x="88.6258" y="334.33"/>
<use xlink:href="#glyph-0-2" x="97.9698" y="334.33"/>
<use xlink:href="#glyph-0-3" x="106.8658" y="334.33"/>
<use xlink:href="#glyph-0-4" x="115.7618" y="334.33"/>
<use xlink:href="#glyph-0-5" x="120.2098" y="334.33"/>
<use xlink:href="#glyph-0-3" x="129.1058" y="334.33"/>
</g>
<path fill="none" stroke-width="5" stroke-linecap="butt" stroke-linejoin="miter" stroke="rgb(0%, 0%, 0%)" stroke-opacity="1" stroke-miterlimit="3.8" d="M 2765 1476.015625 L 2765 1538.984375 M 2765 5971.015625 L 2765 5908.007812 " transform="matrix(0, 0.1, 0.1, 0, 0, 0)"/>
<g fill="rgb(0%, 0%, 0%)" fill-opacity="1">
<use xlink:href="#glyph-0-1" x="88.6258" y="281.83"/>
<use xlink:href="#glyph-0-2" x="97.9698" y="281.83"/>
<use xlink:href="#glyph-0-3" x="106.8658" y="281.83"/>
<use xlink:href="#glyph-0-4" x="115.7618" y="281.83"/>
<use xlink:href="#glyph-0-5" x="120.2098" y="281.83"/>
<use xlink:href="#glyph-0-3" x="129.1058" y="281.83"/>
</g>
<path fill="none" stroke-width="5" stroke-linecap="butt" stroke-linejoin="miter" stroke="rgb(0%, 0%, 0%)" stroke-opacity="1" stroke-miterlimit="3.8" d="M 2238.984375 1476.015625 L 2238.984375 1538.984375 M 2238.984375 5971.015625 L 2238.984375 5908.007812 " transform="matrix(0, 0.1, 0.1, 0, 0, 0)"/>
<g fill="rgb(0%, 0%, 0%)" fill-opacity="1">
<use xlink:href="#glyph-0-1" x="88.6258" y="229.23"/>
<use xlink:href="#glyph-0-2" x="97.9698" y="229.23"/>
<use xlink:href="#glyph-0-3" x="106.8658" y="229.23"/>
<use xlink:href="#glyph-0-4" x="115.7618" y="229.23"/>
<use xlink:href="#glyph-0-5" x="120.2098" y="229.23"/>
<use xlink:href="#glyph-0-7" x="129.1058" y="229.23"/>
</g>
<path fill="none" stroke-width="5" stroke-linecap="butt" stroke-linejoin="miter" stroke="rgb(0%, 0%, 0%)" stroke-opacity="1" stroke-miterlimit="3.8" d="M 1713.007812 1476.015625 L 1713.007812 1538.984375 M 1713.007812 5971.015625 L 1713.007812 5908.007812 " transform="matrix(0, 0.1, 0.1, 0, 0, 0)"/>
<g fill="rgb(0%, 0%, 0%)" fill-opacity="1">
<use xlink:href="#glyph-0-1" x="88.6258" y="176.63"/>
<use xlink:href="#glyph-0-2" x="97.9698" y="176.63"/>
<use xlink:href="#glyph-0-3" x="106.8658" y="176.63"/>
<use xlink:href="#glyph-0-4" x="115.7618" y="176.63"/>
<use xlink:href="#glyph-0-5" x="120.2098" y="176.63"/>
<use xlink:href="#glyph-0-7" x="129.1058" y="176.63"/>
</g>
<path fill="none" stroke-width="5" stroke-linecap="butt" stroke-linejoin="miter" stroke="rgb(0%, 0%, 0%)" stroke-opacity="1" stroke-miterlimit="3.8" d="M 1186.992188 1476.015625 L 1186.992188 1538.984375 M 1186.992188 5971.015625 L 1186.992188 5908.007812 " transform="matrix(0, 0.1, 0.1, 0, 0, 0)"/>
<g fill="rgb(0%, 0%, 0%)" fill-opacity="1">
<use xlink:href="#glyph-0-1" x="88.6258" y="124.03"/>
<use xlink:href="#glyph-0-2" x="97.9698" y="124.03"/>
<use xlink:href="#glyph-0-3" x="106.8658" y="124.03"/>
<use xlink:href="#glyph-0-4" x="115.7618" y="124.03"/>
<use xlink:href="#glyph-0-8" x="120.2098" y="124.03"/>
<use xlink:href="#glyph-0-9" x="129.1058" y="124.03"/>
</g>
<path fill="none" stroke-width="5" stroke-linecap="butt" stroke-linejoin="miter" stroke="rgb(0%, 0%, 0%)" stroke-opacity="1" stroke-miterlimit="3.8" d="M 661.015625 1476.015625 L 661.015625 1538.984375 M 661.015625 5971.015625 L 661.015625 5908.007812 " transform="matrix(0, 0.1, 0.1, 0, 0, 0)"/>
<g fill="rgb(0%, 0%, 0%)" fill-opacity="1">
<use xlink:href="#glyph-0-1" x="88.6258" y="71.4301"/>
<use xlink:href="#glyph-0-2" x="97.9698" y="71.4301"/>
<use xlink:href="#glyph-0-3" x="106.8658" y="71.4301"/>
<use xlink:href="#glyph-0-4" x="115.7618" y="71.4301"/>
<use xlink:href="#glyph-0-8" x="120.2098" y="71.4301"/>
<use xlink:href="#glyph-0-9" x="129.1058" y="71.4301"/>
</g>
<path fill="none" stroke-width="5" stroke-linecap="butt" stroke-linejoin="miter" stroke="rgb(0%, 0%, 0%)" stroke-opacity="1" stroke-miterlimit="3.8" d="M 4868.007812 1626.015625 L 4805 1626.015625 M 661.015625 1626.015625 L 723.984375 1626.015625 " transform="matrix(0, 0.1, 0.1, 0, 0, 0)"/>
<g fill="rgb(0%, 0%, 0%)" fill-opacity="1">
<use xlink:href="#glyph-0-2" x="149.257" y="508.13"/>
<use xlink:href="#glyph-0-7" x="158.153" y="508.13"/>
<use xlink:href="#glyph-0-7" x="167.049" y="508.13"/>
</g>
<path fill="none" stroke-width="5" stroke-linecap="butt" stroke-linejoin="miter" stroke="rgb(0%, 0%, 0%)" stroke-opacity="1" stroke-miterlimit="3.8" d="M 4868.007812 2225 L 4805 2225 M 661.015625 2225 L 723.984375 2225 " transform="matrix(0, 0.1, 0.1, 0, 0, 0)"/>
<g fill="rgb(0%, 0%, 0%)" fill-opacity="1">
<use xlink:href="#glyph-0-6" x="209.157" y="508.13"/>
<use xlink:href="#glyph-0-7" x="218.053" y="508.13"/>
<use xlink:href="#glyph-0-7" x="226.949" y="508.13"/>
</g>
<path fill="none" stroke-width="5" stroke-linecap="butt" stroke-linejoin="miter" stroke="rgb(0%, 0%, 0%)" stroke-opacity="1" stroke-miterlimit="3.8" d="M 4868.007812 2825 L 4805 2825 M 661.015625 2825 L 723.984375 2825 " transform="matrix(0, 0.1, 0.1, 0, 0, 0)"/>
<g fill="rgb(0%, 0%, 0%)" fill-opacity="1">
<use xlink:href="#glyph-0-10" x="269.157" y="508.13"/>
<use xlink:href="#glyph-0-7" x="278.053" y="508.13"/>
<use xlink:href="#glyph-0-7" x="286.949" y="508.13"/>
</g>
<path fill="none" stroke-width="5" stroke-linecap="butt" stroke-linejoin="miter" stroke="rgb(0%, 0%, 0%)" stroke-opacity="1" stroke-miterlimit="3.8" d="M 4868.007812 3423.984375 L 4805 3423.984375 M 661.015625 3423.984375 L 723.984375 3423.984375 " transform="matrix(0, 0.1, 0.1, 0, 0, 0)"/>
<g fill="rgb(0%, 0%, 0%)" fill-opacity="1">
<use xlink:href="#glyph-0-11" x="329.057" y="508.13"/>
<use xlink:href="#glyph-0-7" x="337.953" y="508.13"/>
<use xlink:href="#glyph-0-7" x="346.849" y="508.13"/>
</g>
<path fill="none" stroke-width="5" stroke-linecap="butt" stroke-linejoin="miter" stroke="rgb(0%, 0%, 0%)" stroke-opacity="1" stroke-miterlimit="3.8" d="M 4868.007812 4023.007812 L 4805 4023.007812 M 661.015625 4023.007812 L 723.984375 4023.007812 " transform="matrix(0, 0.1, 0.1, 0, 0, 0)"/>
<g fill="rgb(0%, 0%, 0%)" fill-opacity="1">
<use xlink:href="#glyph-0-8" x="388.957" y="508.13"/>
<use xlink:href="#glyph-0-7" x="397.853" y="508.13"/>
<use xlink:href="#glyph-0-7" x="406.749" y="508.13"/>
</g>
<path fill="none" stroke-width="5" stroke-linecap="butt" stroke-linejoin="miter" stroke="rgb(0%, 0%, 0%)" stroke-opacity="1" stroke-miterlimit="3.8" d="M 4868.007812 4623.007812 L 4805 4623.007812 M 661.015625 4623.007812 L 723.984375 4623.007812 " transform="matrix(0, 0.1, 0.1, 0, 0, 0)"/>
<g fill="rgb(0%, 0%, 0%)" fill-opacity="1">
<use xlink:href="#glyph-0-5" x="448.957" y="508.13"/>
<use xlink:href="#glyph-0-7" x="457.853" y="508.13"/>
<use xlink:href="#glyph-0-7" x="466.749" y="508.13"/>
</g>
<path fill="none" stroke-width="5" stroke-linecap="butt" stroke-linejoin="miter" stroke="rgb(0%, 0%, 0%)" stroke-opacity="1" stroke-miterlimit="3.8" d="M 4868.007812 5221.992188 L 4805 5221.992188 M 661.015625 5221.992188 L 723.984375 5221.992188 " transform="matrix(0, 0.1, 0.1, 0, 0, 0)"/>
<g fill="rgb(0%, 0%, 0%)" fill-opacity="1">
<use xlink:href="#glyph-0-12" x="508.857" y="508.13"/>
<use xlink:href="#glyph-0-7" x="517.753" y="508.13"/>
<use xlink:href="#glyph-0-7" x="526.649" y="508.13"/>
</g>
<path fill="none" stroke-width="5" stroke-linecap="butt" stroke-linejoin="miter" stroke="rgb(0%, 0%, 0%)" stroke-opacity="1" stroke-miterlimit="3.8" d="M 4868.007812 5821.015625 L 4805 5821.015625 M 661.015625 5821.015625 L 723.984375 5821.015625 " transform="matrix(0, 0.1, 0.1, 0, 0, 0)"/>
<g fill="rgb(0%, 0%, 0%)" fill-opacity="1">
<use xlink:href="#glyph-0-9" x="568.757" y="508.13"/>
<use xlink:href="#glyph-0-7" x="577.653" y="508.13"/>
<use xlink:href="#glyph-0-7" x="586.549" y="508.13"/>
</g>
<path fill="none" stroke-width="10" stroke-linecap="butt" stroke-linejoin="miter" stroke="rgb(0%, 0%, 0%)" stroke-opacity="1" stroke-miterlimit="3.8" d="M 661.015625 1476.015625 L 4868.007812 1476.015625 L 4868.007812 5971.015625 L 661.015625 5971.015625 Z M 661.015625 1476.015625 " transform="matrix(0, 0.1, 0.1, 0, 0, 0)"/>
<g fill="rgb(0%, 0%, 0%)" fill-opacity="1">
<use xlink:href="#glyph-1-1" x="68.9301" y="325.491"/>
</g>
<g fill="rgb(0%, 0%, 0%)" fill-opacity="1">
<use xlink:href="#glyph-2-1" x="73.7301" y="314.8191"/>
<use xlink:href="#glyph-2-2" x="73.7301" y="311.2607"/>
<use xlink:href="#glyph-2-1" x="73.7301" y="304.1439"/>
<use xlink:href="#glyph-2-3" x="73.7301" y="300.5855"/>
<use xlink:href="#glyph-2-4" x="73.7301" y="293.4687"/>
</g>
<g fill="rgb(0%, 0%, 0%)" fill-opacity="1">
<use xlink:href="#glyph-1-2" x="68.9301" y="290.6269"/>
<use xlink:href="#glyph-1-3" x="68.9301" y="286.1789"/>
<use xlink:href="#glyph-1-4" x="68.9301" y="280.8509"/>
<use xlink:href="#glyph-1-5" x="68.9301" y="271.9549"/>
<use xlink:href="#glyph-1-6" x="68.9301" y="261.2829"/>
<use xlink:href="#glyph-1-7" x="68.9301" y="256.8349"/>
<use xlink:href="#glyph-1-4" x="68.9301" y="248.8349"/>
<use xlink:href="#glyph-1-8" x="68.9301" y="239.9389"/>
<use xlink:href="#glyph-1-8" x="68.9301" y="236.3869"/>
<use xlink:href="#glyph-1-9" x="68.9301" y="232.8349"/>
</g>
<g fill="rgb(0%, 0%, 0%)" fill-opacity="1">
<use xlink:href="#glyph-0-13" x="333.975" y="530.53"/>
</g>
<g fill="rgb(0%, 0%, 0%)" fill-opacity="1">
<use xlink:href="#glyph-3-1" x="344.6469" y="535.33"/>
<use xlink:href="#glyph-3-2" x="351.0469" y="535.33"/>
<use xlink:href="#glyph-3-3" x="358.1637" y="535.33"/>
<use xlink:href="#glyph-3-4" x="361.7221" y="535.33"/>
<use xlink:href="#glyph-3-5" x="368.8389" y="535.33"/>
<use xlink:href="#glyph-3-5" x="372.3973" y="535.33"/>
</g>
<g fill="rgb(0%, 0%, 0%)" fill-opacity="1">
<use xlink:href="#glyph-0-14" x="375.9559" y="530.53"/>
<use xlink:href="#glyph-0-15" x="380.4039" y="530.53"/>
<use xlink:href="#glyph-0-16" x="385.7319" y="530.53"/>
<use xlink:href="#glyph-0-17" x="394.6279" y="530.53"/>
<use xlink:href="#glyph-0-18" x="405.2999" y="530.53"/>
</g>
<g fill="rgb(0%, 0%, 0%)" fill-opacity="1">
<use xlink:href="#glyph-0-19" x="393.3168" y="85.73"/>
<use xlink:href="#glyph-0-1" x="401.3168" y="85.73"/>
<use xlink:href="#glyph-0-20" x="410.6608" y="85.73"/>
<use xlink:href="#glyph-0-21" x="419.5568" y="85.73"/>
<use xlink:href="#glyph-0-22" x="428.4528" y="85.73"/>
<use xlink:href="#glyph-0-23" x="432.0048" y="85.73"/>
<use xlink:href="#glyph-0-24" x="440.9008" y="85.73"/>
<use xlink:href="#glyph-0-14" x="445.3488" y="85.73"/>
<use xlink:href="#glyph-0-25" x="449.7968" y="85.73"/>
<use xlink:href="#glyph-0-26" x="458.6928" y="85.73"/>
<use xlink:href="#glyph-0-22" x="464.0208" y="85.73"/>
<use xlink:href="#glyph-0-27" x="467.5728" y="85.73"/>
<use xlink:href="#glyph-0-28" x="476.4688" y="85.73"/>
<use xlink:href="#glyph-0-14" x="480.9168" y="85.73"/>
<use xlink:href="#glyph-0-29" x="485.3648" y="85.73"/>
<use xlink:href="#glyph-0-10" x="497.8128" y="85.73"/>
<use xlink:href="#glyph-0-30" x="506.7088" y="85.73"/>
<use xlink:href="#glyph-0-10" x="514.7088" y="85.73"/>
</g>
<path fill="none" stroke-width="10" stroke-linecap="butt" stroke-linejoin="miter" stroke="rgb(100%, 0%, 0%)" stroke-opacity="1" stroke-miterlimit="3.8" d="M 803.984375 5331.992188 L 803.984375 5778.984375 M 1018.984375 1626.015625 L 1648.984375 1776.015625 L 2270 1926.015625 L 2790 2075 L 3361.992188 2225 L 3775 2375 L 4006.992188 2525 L 4203.984375 2675 L 4311.015625 2825 L 4338.984375 2973.984375 L 4356.992188 3123.984375 L 4386.015625 3273.984375 L 4416.992188 3423.984375 L 4458.984375 3573.984375 L 4493.007812 3723.984375 L 4523.007812 3873.007812 L 4545 4023.007812 L 4556.015625 4173.007812 L 4565 4323.007812 L 4568.007812 4473.007812 L 4568.984375 4623.007812 L 4566.015625 4771.992188 L 4561.992188 4921.992188 L 4558.007812 5071.992188 L 4553.984375 5221.992188 L 4550 5371.992188 L 4548.007812 5521.992188 L 4546.992188 5671.015625 L 4546.992188 5821.015625 " transform="matrix(0, 0.1, 0.1, 0, 0, 0)"/>
<path fill-rule="nonzero" fill="rgb(100%, 0%, 0%)" fill-opacity="1" d="M 168.898438 101.898438 C 168.898438 98.421875 166.078125 95.601562 162.601562 95.601562 C 159.121094 95.601562 156.300781 98.421875 156.300781 101.898438 C 156.300781 105.378906 159.121094 108.199219 162.601562 108.199219 C 166.078125 108.199219 168.898438 105.378906 168.898438 101.898438 "/>
<path fill-rule="nonzero" fill="rgb(100%, 0%, 0%)" fill-opacity="1" d="M 183.898438 164.898438 C 183.898438 161.421875 181.078125 158.601562 177.601562 158.601562 C 174.121094 158.601562 171.300781 161.421875 171.300781 164.898438 C 171.300781 168.378906 174.121094 171.199219 177.601562 171.199219 C 181.078125 171.199219 183.898438 168.378906 183.898438 164.898438 "/>
<path fill-rule="nonzero" fill="rgb(100%, 0%, 0%)" fill-opacity="1" d="M 198.898438 227 C 198.898438 223.519531 196.078125 220.699219 192.601562 220.699219 C 189.121094 220.699219 186.300781 223.519531 186.300781 227 C 186.300781 230.480469 189.121094 233.300781 192.601562 233.300781 C 196.078125 233.300781 198.898438 230.480469 198.898438 227 "/>
<path fill-rule="nonzero" fill="rgb(100%, 0%, 0%)" fill-opacity="1" d="M 213.800781 279 C 213.800781 275.519531 210.980469 272.699219 207.5 272.699219 C 204.019531 272.699219 201.199219 275.519531 201.199219 279 C 201.199219 282.480469 204.019531 285.300781 207.5 285.300781 C 210.980469 285.300781 213.800781 282.480469 213.800781 279 "/>
<path fill-rule="nonzero" fill="rgb(100%, 0%, 0%)" fill-opacity="1" d="M 228.800781 336.199219 C 228.800781 332.722656 225.980469 329.898438 222.5 329.898438 C 219.019531 329.898438 216.199219 332.722656 216.199219 336.199219 C 216.199219 339.679688 219.019531 342.5 222.5 342.5 C 225.980469 342.5 228.800781 339.679688 228.800781 336.199219 "/>
<path fill-rule="nonzero" fill="rgb(100%, 0%, 0%)" fill-opacity="1" d="M 243.800781 377.5 C 243.800781 374.019531 240.980469 371.199219 237.5 371.199219 C 234.019531 371.199219 231.199219 374.019531 231.199219 377.5 C 231.199219 380.980469 234.019531 383.800781 237.5 383.800781 C 240.980469 383.800781 243.800781 380.980469 243.800781 377.5 "/>
<path fill-rule="nonzero" fill="rgb(100%, 0%, 0%)" fill-opacity="1" d="M 258.800781 400.699219 C 258.800781 397.222656 255.980469 394.398438 252.5 394.398438 C 249.019531 394.398438 246.199219 397.222656 246.199219 400.699219 C 246.199219 404.179688 249.019531 407 252.5 407 C 255.980469 407 258.800781 404.179688 258.800781 400.699219 "/>
<path fill-rule="nonzero" fill="rgb(100%, 0%, 0%)" fill-opacity="1" d="M 273.800781 420.398438 C 273.800781 416.921875 270.980469 414.101562 267.5 414.101562 C 264.019531 414.101562 261.199219 416.921875 261.199219 420.398438 C 261.199219 423.878906 264.019531 426.699219 267.5 426.699219 C 270.980469 426.699219 273.800781 423.878906 273.800781 420.398438 "/>
<path fill-rule="nonzero" fill="rgb(100%, 0%, 0%)" fill-opacity="1" d="M 288.800781 431.101562 C 288.800781 427.621094 285.980469 424.800781 282.5 424.800781 C 279.019531 424.800781 276.199219 427.621094 276.199219 431.101562 C 276.199219 434.578125 279.019531 437.398438 282.5 437.398438 C 285.980469 437.398438 288.800781 434.578125 288.800781 431.101562 "/>
<path fill-rule="nonzero" fill="rgb(100%, 0%, 0%)" fill-opacity="1" d="M 303.699219 433.898438 C 303.699219 430.421875 300.878906 427.601562 297.398438 427.601562 C 293.921875 427.601562 291.101562 430.421875 291.101562 433.898438 C 291.101562 437.378906 293.921875 440.199219 297.398438 440.199219 C 300.878906 440.199219 303.699219 437.378906 303.699219 433.898438 "/>
<path fill-rule="nonzero" fill="rgb(100%, 0%, 0%)" fill-opacity="1" d="M 318.699219 435.699219 C 318.699219 432.222656 315.878906 429.398438 312.398438 429.398438 C 308.921875 429.398438 306.101562 432.222656 306.101562 435.699219 C 306.101562 439.179688 308.921875 442 312.398438 442 C 315.878906 442 318.699219 439.179688 318.699219 435.699219 "/>
<path fill-rule="nonzero" fill="rgb(100%, 0%, 0%)" fill-opacity="1" d="M 333.699219 438.601562 C 333.699219 435.121094 330.878906 432.300781 327.398438 432.300781 C 323.921875 432.300781 321.101562 435.121094 321.101562 438.601562 C 321.101562 442.078125 323.921875 444.898438 327.398438 444.898438 C 330.878906 444.898438 333.699219 442.078125 333.699219 438.601562 "/>
<path fill-rule="nonzero" fill="rgb(100%, 0%, 0%)" fill-opacity="1" d="M 348.699219 441.699219 C 348.699219 438.222656 345.878906 435.398438 342.398438 435.398438 C 338.921875 435.398438 336.101562 438.222656 336.101562 441.699219 C 336.101562 445.179688 338.921875 448 342.398438 448 C 345.878906 448 348.699219 445.179688 348.699219 441.699219 "/>
<path fill-rule="nonzero" fill="rgb(100%, 0%, 0%)" fill-opacity="1" d="M 363.699219 445.898438 C 363.699219 442.421875 360.878906 439.601562 357.398438 439.601562 C 353.921875 439.601562 351.101562 442.421875 351.101562 445.898438 C 351.101562 449.378906 353.921875 452.199219 357.398438 452.199219 C 360.878906 452.199219 363.699219 449.378906 363.699219 445.898438 "/>
<path fill-rule="nonzero" fill="rgb(100%, 0%, 0%)" fill-opacity="1" d="M 378.699219 449.300781 C 378.699219 445.820312 375.878906 443 372.398438 443 C 368.921875 443 366.101562 445.820312 366.101562 449.300781 C 366.101562 452.777344 368.921875 455.601562 372.398438 455.601562 C 375.878906 455.601562 378.699219 452.777344 378.699219 449.300781 "/>
<path fill-rule="nonzero" fill="rgb(100%, 0%, 0%)" fill-opacity="1" d="M 393.601562 452.300781 C 393.601562 448.820312 390.777344 446 387.300781 446 C 383.820312 446 381 448.820312 381 452.300781 C 381 455.777344 383.820312 458.601562 387.300781 458.601562 C 390.777344 458.601562 393.601562 455.777344 393.601562 452.300781 "/>
<path fill-rule="nonzero" fill="rgb(100%, 0%, 0%)" fill-opacity="1" d="M 408.601562 454.5 C 408.601562 451.019531 405.777344 448.199219 402.300781 448.199219 C 398.820312 448.199219 396 451.019531 396 454.5 C 396 457.980469 398.820312 460.800781 402.300781 460.800781 C 405.777344 460.800781 408.601562 457.980469 408.601562 454.5 "/>
<path fill-rule="nonzero" fill="rgb(100%, 0%, 0%)" fill-opacity="1" d="M 423.601562 455.601562 C 423.601562 452.121094 420.777344 449.300781 417.300781 449.300781 C 413.820312 449.300781 411 452.121094 411 455.601562 C 411 459.078125 413.820312 461.898438 417.300781 461.898438 C 420.777344 461.898438 423.601562 459.078125 423.601562 455.601562 "/>
<path fill-rule="nonzero" fill="rgb(100%, 0%, 0%)" fill-opacity="1" d="M 438.601562 456.5 C 438.601562 453.019531 435.777344 450.199219 432.300781 450.199219 C 428.820312 450.199219 426 453.019531 426 456.5 C 426 459.980469 428.820312 462.800781 432.300781 462.800781 C 435.777344 462.800781 438.601562 459.980469 438.601562 456.5 "/>
<path fill-rule="nonzero" fill="rgb(100%, 0%, 0%)" fill-opacity="1" d="M 453.601562 456.800781 C 453.601562 453.320312 450.777344 450.5 447.300781 450.5 C 443.820312 450.5 441 453.320312 441 456.800781 C 441 460.277344 443.820312 463.101562 447.300781 463.101562 C 450.777344 463.101562 453.601562 460.277344 453.601562 456.800781 "/>
<path fill-rule="nonzero" fill="rgb(100%, 0%, 0%)" fill-opacity="1" d="M 468.601562 456.898438 C 468.601562 453.421875 465.777344 450.601562 462.300781 450.601562 C 458.820312 450.601562 456 453.421875 456 456.898438 C 456 460.378906 458.820312 463.199219 462.300781 463.199219 C 465.777344 463.199219 468.601562 460.378906 468.601562 456.898438 "/>
<path fill-rule="nonzero" fill="rgb(100%, 0%, 0%)" fill-opacity="1" d="M 483.5 456.601562 C 483.5 453.121094 480.679688 450.300781 477.199219 450.300781 C 473.722656 450.300781 470.898438 453.121094 470.898438 456.601562 C 470.898438 460.078125 473.722656 462.898438 477.199219 462.898438 C 480.679688 462.898438 483.5 460.078125 483.5 456.601562 "/>
<path fill-rule="nonzero" fill="rgb(100%, 0%, 0%)" fill-opacity="1" d="M 498.5 456.199219 C 498.5 452.722656 495.679688 449.898438 492.199219 449.898438 C 488.722656 449.898438 485.898438 452.722656 485.898438 456.199219 C 485.898438 459.679688 488.722656 462.5 492.199219 462.5 C 495.679688 462.5 498.5 459.679688 498.5 456.199219 "/>
<path fill-rule="nonzero" fill="rgb(100%, 0%, 0%)" fill-opacity="1" d="M 513.5 455.800781 C 513.5 452.320312 510.679688 449.5 507.199219 449.5 C 503.722656 449.5 500.898438 452.320312 500.898438 455.800781 C 500.898438 459.277344 503.722656 462.101562 507.199219 462.101562 C 510.679688 462.101562 513.5 459.277344 513.5 455.800781 "/>
<path fill-rule="nonzero" fill="rgb(100%, 0%, 0%)" fill-opacity="1" d="M 528.5 455.398438 C 528.5 451.921875 525.679688 449.101562 522.199219 449.101562 C 518.722656 449.101562 515.898438 451.921875 515.898438 455.398438 C 515.898438 458.878906 518.722656 461.699219 522.199219 461.699219 C 525.679688 461.699219 528.5 458.878906 528.5 455.398438 "/>
<path fill-rule="nonzero" fill="rgb(100%, 0%, 0%)" fill-opacity="1" d="M 543.5 455 C 543.5 451.519531 540.679688 448.699219 537.199219 448.699219 C 533.722656 448.699219 530.898438 451.519531 530.898438 455 C 530.898438 458.480469 533.722656 461.300781 537.199219 461.300781 C 540.679688 461.300781 543.5 458.480469 543.5 455 "/>
<path fill-rule="nonzero" fill="rgb(100%, 0%, 0%)" fill-opacity="1" d="M 558.5 454.800781 C 558.5 451.320312 555.679688 448.5 552.199219 448.5 C 548.722656 448.5 545.898438 451.320312 545.898438 454.800781 C 545.898438 458.277344 548.722656 461.101562 552.199219 461.101562 C 555.679688 461.101562 558.5 458.277344 558.5 454.800781 "/>
<path fill-rule="nonzero" fill="rgb(100%, 0%, 0%)" fill-opacity="1" d="M 573.398438 454.699219 C 573.398438 451.222656 570.578125 448.398438 567.101562 448.398438 C 563.621094 448.398438 560.800781 451.222656 560.800781 454.699219 C 560.800781 458.179688 563.621094 461 567.101562 461 C 570.578125 461 573.398438 458.179688 573.398438 454.699219 "/>
<path fill-rule="nonzero" fill="rgb(100%, 0%, 0%)" fill-opacity="1" d="M 588.398438 454.699219 C 588.398438 451.222656 585.578125 448.398438 582.101562 448.398438 C 578.621094 448.398438 575.800781 451.222656 575.800781 454.699219 C 575.800781 458.179688 578.621094 461 582.101562 461 C 585.578125 461 588.398438 458.179688 588.398438 454.699219 "/>
<path fill-rule="nonzero" fill="rgb(100%, 0%, 0%)" fill-opacity="1" d="M 561.800781 80.398438 C 561.800781 76.921875 558.980469 74.101562 555.5 74.101562 C 552.019531 74.101562 549.199219 76.921875 549.199219 80.398438 C 549.199219 83.878906 552.019531 86.699219 555.5 86.699219 C 558.980469 86.699219 561.800781 83.878906 561.800781 80.398438 "/>
<path fill="none" stroke-width="10" stroke-linecap="butt" stroke-linejoin="miter" stroke="rgb(0%, 0%, 0%)" stroke-opacity="1" stroke-miterlimit="3.8" d="M 661.015625 1476.015625 L 4868.007812 1476.015625 L 4868.007812 5971.015625 L 661.015625 5971.015625 Z M 661.015625 1476.015625 " transform="matrix(0, 0.1, 0.1, 0, 0, 0)"/>
</svg>
